<svg xmlns="http://www.w3.org/2000/svg" viewBox="0 0 311 298.26"><defs><style>.cls-1{fill:none;}.cls-2{fill:#fff;}.cls-3{fill:#212121;}</style></defs><g id="Layer_2" data-name="Layer 2"><g id="Section2-img"><rect class="cls-1" width="311" height="298.26" rx="24.21"/><path class="cls-2" d="M214.85,121.78c0-4.17,0-7.54,0-10.9a.92.92,0,0,1,.43-.7c.25-.06.81.17.81.28,0,1.33,1.25,1.19,1.94,1.6a3.87,3.87,0,0,1,2.06,2.2c.17.52.89.95,0,1.43.41,2-.82,3.91-.65,5.93.06.78-.42,1.37-.6,2-.61,2.28-.76,4.68-1.41,6.94a126.93,126.93,0,0,1-4.53,14.13c-.73,1.76-1.26,3.61-1.9,5.41-1,2.85-2.07,5.68-3.34,8.42-1.72,3.75-3.26,7.61-5.28,11.2a96.78,96.78,0,0,1-7.62,11.9c-2,2.63-4.38,5-6.07,7.91-1.49.64-1.91,2.34-3.19,3.2a40.18,40.18,0,0,0-3.12,2.54c-1.68,1.37-3.1,3-4.68,4.56a3,3,0,0,1-1.09.41,2.45,2.45,0,0,1-.29-.85c.45-4.73-1-9.37-.68-14.1.25-3.85-1.12-7.62-.64-11.49-.9-1.68-.51-3.51-.68-5.28s-.45-3.54-.73-5.27c-.46-2.86-.72-5.77-1.3-8.6a31.79,31.79,0,0,0-.64-4,14.34,14.34,0,0,1-.59-3.68,5.9,5.9,0,0,0-.67-2.64c-1.2-1.77-.49-3.84-1.11-5.75s-1.15-3.69-1.59-5.58c-.67-2.9-2.16-5.62-3.33-8.4-.23-.55-.65-1-.9-1.58-.52-1.15-.34-1.25,1-1.22.92,0,1.9.37,2.79-.36a2.29,2.29,0,0,1,1.51-.24c2.57.25,4.9-.73,7.3-1.32a56.07,56.07,0,0,0,10.12-4,21.36,21.36,0,0,0,7.13-4.89c1.19-1.31,2.06-1.2,3.58-.3,2.16,1.27,3.72,3.18,5.48,4.88.82.8.87.8,1.43,0,.13-.19.7-.08,1.08-.11.06,1.21.87,1.21,1.76,1.12a5.25,5.25,0,0,1,2,.56c1.21.34,1.74,2.09,3.3,1.51Z"/><path class="cls-2" d="M94.44,95.86c-.13,1.67.45,3.15-.26,4.81-.63,1.47-.19,3.41-.14,5.14,0,.12.87.42,1,.31a17.27,17.27,0,0,0,1-1.54c2.33-3.17,4-6.79,6.9-9.57a3.43,3.43,0,0,1,2.79-1.22c3,.16,5.85-1,8.87-.68,2.35.23,2.87.22,2.86,2.54,0,1.47,1.62,1.76,1.43,3a4.2,4.2,0,0,0,1.16,3.11c.55.79.75.4.82-.31,0-.1.46-.3.53-.23.42.34.75.79,1.18,1.12,1.22.94,1.85,2.78,3.84,2.55a15.89,15.89,0,0,1,2.7,2.81c.49.83.26,2.12,1.84,1.79,0,0,.21.73.34,1.1s.29.79.36.78c1.64-.33,2.08,1.45,3.17,1.82a13.69,13.69,0,0,0,3.86.18c.09,0,.25.08.25.14a1.93,1.93,0,0,1-.08.46c-1.73-.45-2.52,2.1-4.34,1.35-1.39.86-2.78,1.7-4.16,2.58a58.66,58.66,0,0,1-6.23,3.88,34,34,0,0,0-4.57,3.11,63.15,63.15,0,0,0-6,5.24c-2,1.77-4.07,3.45-5.94,5.34a85.05,85.05,0,0,0-7.14,7.82c-4.41,5.75-9.31,11.16-13,17.47-2,1.25-2.25,3.74-3.86,5.28-.35.34.42,1.48-.6,1.51-1.33,0-.59-1.1-.71-1.71-.31-1.51-.51-3-.8-4.57-.08-.38-.5-.73-.5-1.09,0-5.8-1.34-11.58-.58-17.35.33-2.54.1-5.14.66-7.56.68-2.88.21-6,1.85-8.68-.36-3.12,1.28-5.8,2.08-8.63s1.32-5.74,3.12-8.16c0-2.86,2.33-4.95,2.66-7.72a1.09,1.09,0,0,1,.34-.51A21,21,0,0,0,94.44,95.86Z"/><path class="cls-2" d="M166.77,36.32c2.14,0,3.55,0,5,0a3.46,3.46,0,0,1,2.65.69c1.26,1.24,3.19,0,4.38,1.29,1.72-.47,2.87,1,4.34,1.34a25.83,25.83,0,0,1,4.14,1.81c4,1.77,6.79,5.06,10.33,7.37.27.18.28.74.48,1.08a5.51,5.51,0,0,0,1.17,1.78c1.8,1.29,2.53,3.31,3.64,5.05a55.62,55.62,0,0,1,2.78,5.37c.42.87,0,1.5-1,1.68a69.37,69.37,0,0,1-9.24,1.42c-1.94.11-3.93.95-5.89,1.47-.49.13-1,.68-1.3.07-.14-.26.21-1,.55-1.28.7-.58,1-1.65.56-1.94-.62-.45-1,.36-1.28,1a2.27,2.27,0,0,1-1.63,1.14c-2.83.1-5.7.4-8-2a8.69,8.69,0,0,1-2.07-2.38c-.32-.74-.28-1.67-.72-2.3s-1.54-.83-1.88-1.47a2.89,2.89,0,0,0-3.25-1.62c-1.71.13-3.2.09-4.64,1.55-2,2-7.26,2-9.46.45,0-1.19-1.22-1.18-1.8-1.81-1.77-1.91-1.54-3.46.83-4.71s4.64-2.93,7.45-3.31c.16,0,.31-.49.36-.76s-.22-.51-.3-.49c-2,.31-4.08-.76-5.94.62-.4.29-1,.4-1.31.75-1.35,1.49-2.63,3-3.94,4.56-.07.08-.19.14-.22.23-.21.54.41,1.51-.52,1.59a3.56,3.56,0,0,1-2.31-.63c-3-2.22-6.18-4-9.31-5.91-.53-.32-.47-.86.14-1.24,3.53-2.25,6.94-4.72,10.62-6.68A19,19,0,0,1,156,37.73C159.79,37.18,163.5,35.46,166.77,36.32Zm.92,16.38c.95-1.65-1.18-2.28-1.2-3.66-.23,0-.52,0-.68.09-2.28,1.59-4.55,3.21-6.81,4.84-.11.08-.13.3-.2.45.3,0,.75.25.86.13,1.2-1.23,2.13-.63,2.94.42s2.19,1.46,3,.67S168.72,54.86,167.69,52.7Zm15-.14a37.42,37.42,0,0,0-4.43,1.87,6.15,6.15,0,0,0-1.68,2.19c-.18.29-.1.73-.15,1.1.3,0,.69.2.87.07a21.24,21.24,0,0,1,4.9-2.29,8.2,8.2,0,0,0,2-1.36.78.78,0,0,0-.33-1.36C183.65,52.69,183.33,52.67,182.73,52.56Zm1.09,7.28c2,0,3.48,0,5,0,1.77-.06,2.18-.93,1.25-2.57a6.27,6.27,0,0,0-.66-1c-1-1.19-1-1.15-2.24.25C186.21,57.55,185.17,58.49,183.82,59.84Z"/><path class="cls-2" d="M192.65,102.22c1.27-2,3.32-2.54,3.31-4.75,0-.39.69-.77,1-1.17s.9-.75.83.22a1.76,1.76,0,0,0,.8,1.64c.5.39,1.06.44,1.16-.32s.45-.81,1.06-.72c1.46.24,1.75-.06,1.31-1.29a5.38,5.38,0,0,1-.36-.82.62.62,0,0,1,.29-.5.73.73,0,0,1,.63,0,1.79,1.79,0,0,1,.85,2.41c-2.82,3.75-5.24,7.86-9.75,10a16.81,16.81,0,0,0-4,3.07,36.23,36.23,0,0,1-13.23,6.73,66.9,66.9,0,0,1-11.55,1.33c-1.16,0-2.18-.56-3.44-.26-1,.26-2.36-.32-3.5-.68a18.11,18.11,0,0,1-3.34-1.39c-1.16-.64-2.87,0-3.59-1.59-3.51-.54-5.74-3.4-8.7-5a10.7,10.7,0,0,1-4.25-4,36.5,36.5,0,0,0-3.85-4.63,6.74,6.74,0,0,1-.59-1.06c-.55-1,1.18-2.66-1-3.12a16.15,16.15,0,0,1-.91-3.52c-.05-1.36-1.86-1.73-1.46-3.4.24-1-.86-2-1.51-2.92-.84-1.23-.58-3-1.63-4.22-.09-.11.25-.69.5-.94.88-.87,1.82-1.68,2.73-2.52.26-.24.5-.51.75-.76.18.31.53.62.54.93,0,1.74.1,3.49,0,5.22A5.09,5.09,0,0,0,133,87.4a7.78,7.78,0,0,0,1.13,1.17c.12-.49.2-1,.35-1.46a6.38,6.38,0,0,0,.61-1.69c0-1.09.32-2.14,1.47-1.94.51.08,1.1,1.44,1.11,2.23,0,1.26.33,1.79,1.63,1.58.55-.09.92,0,1.11.75a9.37,9.37,0,0,0,1.26,2.4c.18.29.49.72.74.72,1.7,0,2.18,1.55,3.17,2.45.25.24.49.85.63.81,2.09-.48,3,1.86,4.75,2a.85.85,0,0,1,.48.64c-.16,1.62.94,1.67,1.76,1.09s1.17-.24,1.88.15c1.41.78,3.06,1.12,4.25,2.34.19.2.73.39.81.3,1.6-1.74,3.13.67,4.72.06.28-.1.82.18,1.09.44.9.88,1.7,2,2.79.22,1.73,0,3.47,0,5.2,0,.13,0,.34.27.37.45.1.54.1,1.27.8.37,1.81-2.31,4.18-1.72,6.4-1.07.82.23,1.35.17,1.57-.4.81-2.08,2.88-2.16,4.46-2.5a3.26,3.26,0,0,0,2.77-2c.47-1,1.53-1,1.93-.07s1.86,1.65.45,3C192.34,99.75,192.65,100.81,192.65,102.22Z"/><path class="cls-2" d="M161.31,256.75c-.36-3.22.66-6.23,2-9.17.21-.46.38-.93.56-1.4a13.73,13.73,0,0,1,6.65-7.43c2-1,3.38-.19,4.5.61a10.69,10.69,0,0,1,4.61,9.16A27.75,27.75,0,0,1,177.29,259a14.34,14.34,0,0,1-7.92,8c-2.81,1.19-5.11.52-6.46-2.06A15.14,15.14,0,0,1,161.31,256.75Zm1.93,4.72c0,2.95,1.17,4.49,3.9,5.13.52.12,2-.94,1.86-1.38,0-.12-.36-.25-.53-.22-.92.16-1.15-.34-1.52-1.09-.23-.45-1.28-.45-1.91-.75-.23-.11-.38-.48-.48-.76-.25-.66-.44-1.34-.67-2a5.38,5.38,0,0,0-.24-.55,2.13,2.13,0,0,0-.39.66A4.48,4.48,0,0,0,163.24,261.47Z"/><path class="cls-2" d="M63.94,218a25.2,25.2,0,0,1,1.19-7.8c.72-2.76,2.68-4.21,4.45-6a2.17,2.17,0,0,1,3,0c1.41,1.2,2.85,2.27,3.39,4.38.65,2.58,1.7,5,1.72,7.77,0,.89.51,1.77.6,2.67.27,2.77-1.08,5.42-.63,8.21a14.39,14.39,0,0,1-4.07,5.49c-.76.57-3.42.17-4.18-.53-3.6-3.36-5.7-7.38-5.48-12.42C64,219.38,63.94,219,63.94,218Zm3.48,5.75a4.59,4.59,0,0,0-.21,1,10.25,10.25,0,0,0,3.38,6.7c.24.24.78.21,1.18.24a1.49,1.49,0,0,0,.56-.21,3.3,3.3,0,0,0-.26-.45c-.21-.25-.62-.44-.66-.7-.39-2.33-2.62-3.61-3.25-5.81C68.09,224.23,67.73,224.06,67.42,223.76Z"/><path class="cls-2" d="M188.72,85.33c0,.53-1.47,1.24-2,.87a13.54,13.54,0,0,0-6-2.18c-.83-.09-.15-1.58-1.36-1.34a10.3,10.3,0,0,1-2.29,0,6.07,6.07,0,0,1-4-2.16c-.5-.66-.57,0-.86,0-1.44.2-2.85.51-4.27-.41-.64-.41-1.28-.61-1.44-1.44s-.62-.67-1.17-.4c-2.34,1.15-4.4.28-6.43-.89-.4-.24-1-.59-1.31-.44a2.75,2.75,0,0,1-3.18,0c-.81-.48-2.11.19-2.88-1-.22-.32-1.17-.59-1.38-.41-1.1.94-2-.31-3.1-.11-.62.11-1.32-.64-2.1,0-.19.16-1.07-.14-1.27-.45s.71-1.49,1.32-1.45c.19,0,.36.18.54.26s.64.44.81.35c2-1,4.3-.06,6.18-.84,1.65-.69,3.17-.22,4.73-.39.39,0,.92.46,1.25.82s.59.39.95,0c1.3-1.47,2.89-1,4.41-.51,1.06.31,2.08.75,3.12,1.14.37.14.75.49,1.1.46,1.84-.18,3.11.76,4.52,1.79a35,35,0,0,0,5.11,2.6,25.11,25.11,0,0,0,4.34,2.1c1.62.44,2.49,2.19,4.39,2.13.66,0,1.37.83,2,1.32C188.62,84.88,188.65,85.14,188.72,85.33Z"/><path class="cls-2" d="M181.83,67.1c-2,1.46-4.17,1.34-5.86,2.5a.86.86,0,0,1-.84-.2A36.11,36.11,0,0,1,173.07,66a4.94,4.94,0,0,1-.26-1.52c-.22.38-.36.93-.7,1.11a1.68,1.68,0,0,1-2.33-1.35c-.18-1.4.67-2.55,1-3.8.22-.72,1-.79,1.66-.6a1.62,1.62,0,0,1,1.24,1.61c.08,2.11,0,2.22,1.19,3.12.88.69.63,2.38,2.18,2.42,1.08,0,2.17,0,3.25,0C180.66,67,181,67.06,181.83,67.1Z"/><path class="cls-2" d="M164,64.6a7.67,7.67,0,0,1-.9-.63c-.7-.67-1.4-1.36-2.06-2.07-.14-.16-.14-.45-.2-.68.29,0,.7-.06.86.1.55.56,1,.73,1.6.06a1.41,1.41,0,0,1,.46-.45c.8-.36,1.62-.72,2.45-1a4.89,4.89,0,0,1-.41,2.83A20.7,20.7,0,0,1,164,64.6Z"/><path class="cls-3" d="M167.69,52.7c1,2.16-1.22,2.18-2.05,2.94s-2.18.45-3-.67-1.74-1.65-2.94-.42c-.11.12-.56-.08-.86-.13.07-.15.09-.37.2-.45,2.26-1.63,4.53-3.25,6.81-4.84.16-.12.45-.06.68-.09C166.51,50.42,168.64,51.05,167.69,52.7Z"/><path class="cls-3" d="M182.73,52.56c.6.11.92.13,1.21.22a.78.78,0,0,1,.33,1.36,8.2,8.2,0,0,1-2,1.36,21.24,21.24,0,0,0-4.9,2.29c-.18.13-.57,0-.87-.07.05-.37,0-.81.15-1.1a6.15,6.15,0,0,1,1.68-2.19A37.42,37.42,0,0,1,182.73,52.56Z"/><path class="cls-3" d="M183.82,59.84c1.35-1.35,2.39-2.29,3.31-3.34,1.24-1.4,1.21-1.44,2.24-.25a6.27,6.27,0,0,1,.66,1c.93,1.64.52,2.51-1.25,2.57C187.3,59.88,185.81,59.84,183.82,59.84Z"/><path class="cls-3" d="M163.24,261.47a4.48,4.48,0,0,1,0-1,2.13,2.13,0,0,1,.39-.66,5.38,5.38,0,0,1,.24.55c.23.67.42,1.35.67,2,.1.28.25.65.48.76.63.3,1.68.3,1.91.75.37.75.6,1.25,1.52,1.09.17,0,.5.1.53.22.12.44-1.34,1.5-1.86,1.38C164.41,266,163.24,264.42,163.24,261.47Z"/><path class="cls-3" d="M67.42,223.76c.31.3.67.47.74.72.63,2.2,2.86,3.48,3.25,5.81,0,.26.45.45.66.7a3.3,3.3,0,0,1,.26.45,1.49,1.49,0,0,1-.56.21c-.4,0-.94,0-1.18-.24a10.25,10.25,0,0,1-3.38-6.7A4.59,4.59,0,0,1,67.42,223.76Z"/></g></g></svg>