<svg xmlns="http://www.w3.org/2000/svg" viewBox="0 0 156.63 231.53"><defs><style>.cls-1{fill:#fff;}.cls-2{fill:#212121;}</style></defs><g id="Layer_2" data-name="Layer 2"><g id="Section2-img"><path class="cls-1" d="M150.94,85.7c0-4.17,0-7.54,0-10.91a.91.91,0,0,1,.43-.69c.25-.06.81.17.81.27,0,1.34,1.25,1.2,1.93,1.61a3.81,3.81,0,0,1,2.07,2.19c.17.53.89,1,0,1.43.41,2.05-.82,3.92-.65,5.93.06.79-.42,1.38-.6,2-.61,2.28-.76,4.68-1.41,6.94A127.44,127.44,0,0,1,149,108.63c-.73,1.77-1.26,3.62-1.9,5.42-1,2.85-2.07,5.67-3.34,8.42-1.72,3.75-3.26,7.61-5.28,11.19a96.78,96.78,0,0,1-7.62,11.9c-2,2.63-4.38,5-6.07,7.92-1.5.63-1.91,2.34-3.19,3.2-1.12.75-2.09,1.69-3.12,2.53-1.68,1.38-3.1,3.06-4.68,4.56a3,3,0,0,1-1.1.42c-.09-.29-.3-.58-.28-.85.45-4.74-1-9.38-.68-14.11.25-3.85-1.12-7.62-.64-11.48-.9-1.68-.51-3.51-.68-5.28s-.45-3.54-.73-5.27c-.46-2.87-.72-5.77-1.3-8.6a32.26,32.26,0,0,0-.64-4,14.2,14.2,0,0,1-.59-3.67,5.82,5.82,0,0,0-.68-2.65c-1.19-1.77-.48-3.83-1.1-5.74s-1.16-3.7-1.59-5.58c-.67-2.91-2.16-5.62-3.33-8.4-.23-.56-.65-1-.9-1.59-.52-1.14-.34-1.24,1-1.21.92,0,1.9.36,2.79-.37a2.29,2.29,0,0,1,1.51-.23c2.57.25,4.9-.73,7.3-1.33a56.78,56.78,0,0,0,10.12-4A21.36,21.36,0,0,0,129.44,75c1.19-1.32,2.06-1.2,3.58-.31,2.16,1.28,3.72,3.18,5.48,4.89.82.8.87.8,1.43,0,.13-.2.7-.09,1.08-.11.06,1.2.87,1.21,1.76,1.12a5.32,5.32,0,0,1,2,.55c1.22.34,1.75,2.09,3.31,1.52Z"/><path class="cls-1" d="M30.52,59.77c-.12,1.68.46,3.15-.25,4.81-.63,1.47-.19,3.41-.15,5.15,0,.12.87.42,1,.3a16,16,0,0,0,1-1.54c2.33-3.16,4-6.79,6.9-9.57a3.46,3.46,0,0,1,2.79-1.22c3,.16,5.85-1,8.87-.67,2.35.23,2.87.21,2.86,2.54,0,1.47,1.62,1.76,1.43,3a4.26,4.26,0,0,0,1.15,3.11c.56.79.76.4.83-.32,0-.1.46-.29.53-.23.42.34.75.8,1.18,1.13,1.22.94,1.85,2.78,3.84,2.55a15.89,15.89,0,0,1,2.7,2.81c.49.83.26,2.11,1.84,1.79,0,0,.21.72.34,1.1s.29.78.36.77c1.64-.32,2.08,1.46,3.17,1.83a13.68,13.68,0,0,0,3.86.17c.09,0,.25.09.25.14a1.85,1.85,0,0,1-.08.46c-1.73-.45-2.52,2.1-4.34,1.36-1.39.85-2.78,1.7-4.16,2.57a58.75,58.75,0,0,1-6.23,3.89,34,34,0,0,0-4.57,3.11,63.15,63.15,0,0,0-6,5.24c-2,1.77-4.07,3.44-5.94,5.33a85.05,85.05,0,0,0-7.14,7.82c-4.41,5.76-9.31,11.16-13,17.48-2,1.25-2.25,3.74-3.86,5.27-.35.34.42,1.48-.6,1.51-1.34.05-.59-1.09-.71-1.7-.31-1.52-.51-3.06-.81-4.58-.07-.38-.49-.72-.49-1.08,0-5.8-1.34-11.58-.58-17.35.33-2.54.1-5.15.66-7.56.68-2.89.21-6,1.85-8.69-.36-3.11,1.28-5.8,2.08-8.62s1.32-5.74,3.12-8.17c0-2.86,2.33-5,2.66-7.72,0-.18.2-.35.34-.5A20.63,20.63,0,0,0,30.52,59.77Z"/><path class="cls-1" d="M102.86.23c2.14,0,3.55.05,5,0a3.42,3.42,0,0,1,2.65.69c1.26,1.24,3.19,0,4.38,1.28,1.72-.46,2.86,1,4.34,1.34a26.8,26.8,0,0,1,4.14,1.82c4,1.77,6.79,5.05,10.33,7.36.27.18.28.74.48,1.09a5.51,5.51,0,0,0,1.17,1.78c1.8,1.29,2.53,3.3,3.64,5A54.48,54.48,0,0,1,141.73,26c.42.86,0,1.5-1,1.68a71,71,0,0,1-9.24,1.42c-1.94.1-3.93.95-5.89,1.47-.49.13-1,.68-1.3.07-.14-.26.21-1,.55-1.28.7-.58,1-1.65.56-1.94-.62-.45-1,.35-1.28,1a2.33,2.33,0,0,1-1.63,1.14c-2.83.09-5.7.4-8-2a8.78,8.78,0,0,1-2.06-2.37c-.32-.74-.28-1.68-.72-2.3s-1.54-.83-1.88-1.47a2.9,2.9,0,0,0-3.25-1.63c-1.71.13-3.2.1-4.64,1.55-2,2-7.26,2-9.46.45,0-1.18-1.22-1.18-1.8-1.8-1.77-1.92-1.54-3.46.83-4.71S96.14,12.34,99,12c.16,0,.31-.48.36-.76s-.22-.5-.3-.49c-2,.32-4.08-.75-5.94.62-.4.3-1,.4-1.31.76-1.35,1.48-2.63,3-3.94,4.55-.07.09-.19.15-.22.24-.21.54.41,1.51-.52,1.59a3.62,3.62,0,0,1-2.31-.63c-3-2.23-6.18-4-9.31-5.91-.53-.32-.47-.86.14-1.25C79.13,8.44,82.54,6,86.22,4a19,19,0,0,1,5.84-2.37C95.88,1.1,99.59-.62,102.86.23Zm.92,16.38c.94-1.64-1.18-2.27-1.2-3.65-.23,0-.52,0-.68.08-2.28,1.6-4.55,3.22-6.81,4.84-.11.09-.13.3-.2.46.3.05.75.25.86.13,1.2-1.23,2.13-.63,2.94.41s2.19,1.47,3,.68S104.81,18.77,103.78,16.61Zm15-.14a35.94,35.94,0,0,0-4.43,1.88,6.07,6.07,0,0,0-1.68,2.19c-.18.28-.1.72-.15,1.09.3,0,.69.21.87.08a20.84,20.84,0,0,1,4.9-2.29,8.79,8.79,0,0,0,2-1.36A.78.78,0,0,0,120,16.7,10.16,10.16,0,0,0,118.82,16.47Zm1.09,7.28c2,0,3.48,0,5,0,1.77,0,2.18-.92,1.25-2.56a6.27,6.27,0,0,0-.66-1c-1-1.19-1-1.15-2.24.25C122.3,21.46,121.26,22.4,119.91,23.75Z"/><path class="cls-1" d="M128.74,66.13c1.27-2,3.32-2.54,3.31-4.74,0-.39.69-.78,1-1.18s.9-.74.83.23a1.78,1.78,0,0,0,.79,1.64c.51.39,1.07.44,1.17-.32s.45-.82,1.06-.72c1.46.23,1.75-.07,1.31-1.29a5.85,5.85,0,0,1-.36-.82.64.64,0,0,1,.29-.51.81.81,0,0,1,.63,0,1.81,1.81,0,0,1,.85,2.42c-2.83,3.75-5.24,7.86-9.76,10A16.5,16.5,0,0,0,126,73.92c-2.49,2.35-9.35,6-13.23,6.72A66,66,0,0,1,101.19,82c-1.16,0-2.18-.57-3.44-.26-1,.25-2.36-.33-3.5-.69a17.41,17.41,0,0,1-3.34-1.38c-1.16-.64-2.87,0-3.59-1.59-3.51-.55-5.74-3.4-8.7-5a10.63,10.63,0,0,1-4.25-4,37.13,37.13,0,0,0-3.85-4.62,7.78,7.78,0,0,1-.59-1.06c-.55-1,1.18-2.67-1-3.12A16.3,16.3,0,0,1,68,56.81c0-1.37-1.87-1.73-1.46-3.4.24-1-.86-2-1.51-2.92-.84-1.24-.58-3-1.63-4.23-.09-.1.25-.69.5-.93.88-.87,1.82-1.69,2.73-2.53.26-.24.5-.5.74-.75.19.31.54.61.55.93,0,1.74.1,3.48,0,5.22a5.09,5.09,0,0,0,1.16,3.12,7.78,7.78,0,0,0,1.13,1.17c.12-.49.2-1,.35-1.46a6.64,6.64,0,0,0,.61-1.69c0-1.1.32-2.15,1.47-2,.51.09,1.1,1.44,1.11,2.23,0,1.27.33,1.8,1.63,1.58.55-.09.92,0,1.11.75a9.05,9.05,0,0,0,1.26,2.4c.18.3.49.73.74.73,1.7,0,2.18,1.55,3.17,2.45.25.24.49.84.63.81,2.09-.49,3,1.86,4.75,2a.83.83,0,0,1,.48.64c-.16,1.62.94,1.66,1.76,1.08s1.17-.23,1.88.15c1.41.78,3.06,1.13,4.25,2.35.19.19.73.38.81.3,1.6-1.74,3.13.67,4.72.06.28-.1.82.18,1.09.44.9.87,1.7,2,2.79.22,1.73,0,3.47,0,5.2,0,.13,0,.34.27.37.44.1.55.1,1.28.8.38,1.81-2.32,4.18-1.72,6.4-1.08.82.24,1.35.17,1.57-.39.81-2.09,2.88-2.17,4.46-2.51a3.25,3.25,0,0,0,2.77-2c.46-1,1.53-1.06,1.93-.07s1.86,1.65.45,3C128.43,63.66,128.74,64.73,128.74,66.13Z"/><path class="cls-1" d="M97.4,220.66c-.36-3.21.66-6.23,2-9.17.21-.45.38-.93.56-1.4a13.68,13.68,0,0,1,6.65-7.42c2-1,3.38-.2,4.5.6a10.69,10.69,0,0,1,4.61,9.16,27.7,27.7,0,0,1-2.36,10.48,14.36,14.36,0,0,1-7.92,8.05c-2.81,1.19-5.11.52-6.46-2.06A15.18,15.18,0,0,1,97.4,220.66Zm1.93,4.73c0,2.94,1.17,4.49,3.9,5.12.52.12,2-.93,1.86-1.37,0-.12-.36-.25-.53-.22-.92.15-1.15-.34-1.52-1.09-.23-.45-1.28-.46-1.91-.76-.23-.11-.38-.48-.48-.76-.25-.66-.44-1.34-.67-2a5.38,5.38,0,0,0-.24-.55,2.25,2.25,0,0,0-.39.66A4.56,4.56,0,0,0,99.33,225.39Z"/><path class="cls-1" d="M0,181.93a25.43,25.43,0,0,1,1.18-7.8c.73-2.76,2.69-4.22,4.46-6a2.16,2.16,0,0,1,3,0c1.41,1.19,2.85,2.26,3.39,4.37.65,2.58,1.7,5,1.72,7.77,0,.9.51,1.77.6,2.67.27,2.77-1.08,5.43-.63,8.22a14.43,14.43,0,0,1-4.07,5.48c-.76.58-3.42.18-4.18-.53C1.9,192.8-.2,188.78,0,183.73,0,183.3,0,182.86,0,181.93Zm3.48,5.75a4.46,4.46,0,0,0-.21.95,10.25,10.25,0,0,0,3.38,6.7c.24.24.78.21,1.18.24.18,0,.37-.14.56-.21a2.9,2.9,0,0,0-.26-.46c-.21-.24-.62-.43-.66-.7-.39-2.32-2.63-3.61-3.25-5.8C4.18,188.15,3.82,188,3.51,187.68Z"/><path class="cls-1" d="M124.81,49.24c0,.53-1.47,1.24-2,.88a13.42,13.42,0,0,0-6-2.18c-.83-.1-.15-1.59-1.37-1.35a10.19,10.19,0,0,1-2.28,0,6.12,6.12,0,0,1-4-2.17c-.5-.65-.57,0-.86,0-1.44.2-2.85.5-4.27-.41-.64-.42-1.28-.62-1.45-1.44s-.61-.67-1.16-.4c-2.34,1.14-4.4.28-6.43-.9-.4-.23-1-.59-1.31-.43a2.75,2.75,0,0,1-3.18-.06c-.81-.48-2.11.19-2.88-1-.22-.32-1.17-.58-1.38-.4-1.1.94-2-.31-3.1-.12-.62.11-1.32-.63-2.1,0-.19.16-1.07-.14-1.27-.46s.71-1.49,1.32-1.44c.19,0,.36.17.54.26s.64.43.81.35c2-1,4.3-.06,6.18-.85,1.65-.69,3.17-.21,4.73-.38.39,0,.92.45,1.25.82s.59.38,1,0c1.3-1.47,2.89-1,4.41-.52,1.06.31,2.08.75,3.12,1.15.37.14.75.49,1.1.45,1.84-.18,3.11.77,4.52,1.79a34,34,0,0,0,5.11,2.6,24.46,24.46,0,0,0,4.34,2.11c1.62.43,2.49,2.19,4.39,2.12.66,0,1.37.83,2,1.32C124.71,48.8,124.74,49.05,124.81,49.24Z"/><path class="cls-1" d="M117.92,31c-2,1.46-4.17,1.35-5.86,2.51a.91.91,0,0,1-.84-.2A37.47,37.47,0,0,1,109.16,30a4.94,4.94,0,0,1-.26-1.52c-.22.38-.36.92-.7,1.11a1.69,1.69,0,0,1-2.33-1.36c-.18-1.4.67-2.54,1-3.8.22-.72,1-.78,1.66-.6a1.63,1.63,0,0,1,1.24,1.62c.08,2.1,0,2.21,1.19,3.11.88.7.63,2.39,2.18,2.43,1.08,0,2.17,0,3.25,0C116.75,30.94,117.06,31,117.92,31Z"/><path class="cls-1" d="M100.13,28.52a8,8,0,0,1-.9-.63c-.7-.68-1.4-1.36-2.06-2.08-.15-.15-.14-.44-.2-.67.29,0,.7-.07.86.09.55.56,1,.74,1.6.07a1.32,1.32,0,0,1,.46-.45,24.75,24.75,0,0,1,2.45-1,5,5,0,0,1-.41,2.84A22.15,22.15,0,0,1,100.13,28.52Z"/><path class="cls-2" d="M103.78,16.61c1,2.16-1.22,2.18-2,2.95s-2.18.45-3-.68-1.74-1.64-2.94-.41c-.11.12-.56-.08-.86-.13.07-.16.09-.37.2-.46,2.26-1.62,4.53-3.24,6.81-4.84.16-.11.45-.06.68-.08C102.6,14.34,104.72,15,103.78,16.61Z"/><path class="cls-2" d="M118.82,16.47a10.16,10.16,0,0,1,1.21.23.78.78,0,0,1,.33,1.36,8.79,8.79,0,0,1-2,1.36,20.84,20.84,0,0,0-4.9,2.29c-.18.13-.57-.05-.87-.08,0-.37,0-.81.15-1.09a6.07,6.07,0,0,1,1.68-2.19A35.94,35.94,0,0,1,118.82,16.47Z"/><path class="cls-2" d="M119.91,23.75c1.35-1.35,2.39-2.29,3.31-3.33,1.24-1.4,1.21-1.44,2.24-.25a6.27,6.27,0,0,1,.66,1c.93,1.64.52,2.51-1.25,2.56C123.39,23.79,121.9,23.75,119.91,23.75Z"/><path class="cls-2" d="M99.33,225.39a4.56,4.56,0,0,1,0-1,2.25,2.25,0,0,1,.39-.66,5.38,5.38,0,0,1,.24.55c.23.67.42,1.35.67,2,.1.28.25.65.48.76.63.3,1.68.31,1.91.76.37.75.6,1.24,1.52,1.09.17,0,.5.1.53.22.12.44-1.34,1.49-1.86,1.37C100.5,229.88,99.33,228.33,99.33,225.39Z"/><path class="cls-2" d="M3.51,187.68c.31.29.67.47.74.72.62,2.19,2.86,3.48,3.25,5.8,0,.27.45.46.66.7a2.9,2.9,0,0,1,.26.46c-.19.07-.38.22-.56.21-.4,0-.94,0-1.18-.24a10.25,10.25,0,0,1-3.38-6.7A4.46,4.46,0,0,1,3.51,187.68Z"/></g></g></svg>