<svg xmlns="http://www.w3.org/2000/svg" viewBox="0 0 184 255"><defs><style>.cls-1{fill:#fff;}.cls-2{fill:#212121;}</style></defs><g id="Layer_2" data-name="Layer 2"><g id="Section2-img"><path class="cls-1" d="M184,176c0,26.33-66,2.67-66,29-61.33,0-56.67,50-118,50V38C44.67,38,89.33,0,134,0c1.81,14.85,3.66,10.7,5.43,25.56.79,6.61,1.77,13.22,2.09,19.86.67,13.58.88,27.19,1.5,40.77,0,1.12,1.86,3.13,2.75,3.08,5.28-.31,7.91,2.57,8.67,7.12a28,28,0,0,1,.06,10.83,127.8,127.8,0,0,1-6.29,18.94c-2.61,6.19-4.72,13.25-13.78,13.72,1.91,4,3.7,7.17,5,10.56,2.08,5.42,5.79,7.68,11.57,7.42,9.64-.44,17.3,3.76,23.88,10.57C177.62,171.25,181,173.49,184,176ZM40.69,114.52l5.49,3.23c.22-.82.85-1.84.58-2.45-1.39-3.14-3.63-1.75-5.73-.85l-.45.21,5.62-5.24c-1.6-2.86-2.16-6,2.1-7.22,2.92-.83,5.75-.27,6.94,3.67l-4.52-1.28c3.47,5.8,6.61,2.47,8.24,1.66L67,108.16l1.12-1.65c-1.53-2.38-2.64-5.22-4.67-7.06C55.35,92.07,49.3,92.12,40,99.1l6.83-9,13.44,2.52c-2.53-2.48-5.67-3.71-8.48-5.47a30.8,30.8,0,0,1-7.35-6,5.33,5.33,0,0,1,0-5.18c1.24-1.57,3.68-2.18,5.63-3.21L40.47,62.61c0-2.7.63-5-.11-5.63-3.21-2.5-4.61-5.39-4.22-9.46.09-.93-1.2-2.33-2.21-2.89-.53-.29-2,.57-2.71,1.25a11.57,11.57,0,0,0-2.72,3.49,63.5,63.5,0,0,0-5.58,31.11c.32,4.58-.69,9.26-1.17,14.8C19.86,94,19.14,93.55,18.55,93c-2.61-2.45-5.81-2.42-7.16.49-1.23,2.65-1.92,7.62-.42,9.06a8.89,8.89,0,0,1,1.85,10.9c-2.05,4-.89,6.75.82,9.67A123.5,123.5,0,0,0,22,135.54a10.73,10.73,0,0,0,5.12,3.69c3.28.94,4.62,2.8,4.94,6A52.55,52.55,0,0,0,41,170.38c2.86,4.14,6.66,7.68,10.32,11.19,2,1.93,4.75,3.09,6.95,4.87,6.4,5.17,12,12.47,22.87,7.52-7.86,0-14.26-1.08-16.29-9.21-.18-.7-1.26-1.12-1.67-1.82-1.18-2.05-2.24-4.19-3.74-7.06,2.61,0,4.06,0,5.51,0,7.14-.29,14.29-.49,21.41-1,1.66-.12,3.24-1.37,5.25-2.28l-23-5.23c3.16-7.89,9.86-1.93,13.72-5.78-5.3-1.18-10-2.49-15.49-.27-5.93,2.37-12.6,2.92-20.11,4.51-2.07-1.66-2.73-5-.36-8.49.34-.5,3.26.76,4.83,1.17,1.09-3.17,1.82-6.85,3.57-10,3.11-5.58,6.09.68,9.23.84,4.22.22,8.33,2.58,12.49,4l-1.75-1.05,7.14-3c-3.86-1.52-7.5-1.85-9.21-3.84-4.25-4.94-5.41-10.85-2.42-17.21A25.83,25.83,0,0,0,72,121.13c.86-5.73,1.6-11.49,2.26-17.25.16-1.44.44-3.58-.33-4.27-1.81-1.6-4.22-2.51-6.39-3.7l-1.47.91C76,113.35,67,122,52.9,128.67a14.92,14.92,0,0,0,3.6.54c1.53.19,3,.51,4.55.77-.39,1.37-.51,2.92-1.23,4.08-2.45,4-5,7.89-7.75,11.63-1.89,2.55-4.22,4.78-6.64,7.47-1.28-3.76-2.41-6.48-3.07-9.3a4.28,4.28,0,0,1,1.18-3.26c3.61-3.7,3.14-6.14-1.68-8.38-3.75-1.73-5.35-4.32-3-8.37a4.72,4.72,0,0,0,.75-3.22c-1.91-6.15-4-12.23-5.94-17.88L40.07,99C37.48,104.29,35.1,109.57,40.69,114.52Zm60.57-12.86c1.41,2,2.39,4.67,4,5.16s4-1.22,6-2l.9,5.12c3.06-2.84,6.15-5,2.42-9.08a14.86,14.86,0,0,0-14.44-4.79c-5.69,1.05-10.09,3.92-12,10C94.35,109.29,96.43,101.6,101.26,101.66Zm-15.34,5.41c4-15.38,14.87-15,26.88-13.24a18.71,18.71,0,0,0-7.32-2.62c-2.09-.31-4.41.33-6.34-.32-5.17-1.73-9,1.29-12.18,4S82.33,102.07,85.92,107.07ZM145.76,121l1.86.48c1.65-5.31,3.83-10.53,4.77-16,.62-3.56-.35-7.46-1.07-11.12-.15-.77-2.34-1.13-3.58-1.67-.25,1.18-.87,2.42-.7,3.53C148.36,104.58,150.29,112.89,145.76,121Zm-3-4.56,1.09-.5c-.54-2.46-.69-5.11-1.77-7.31-.54-1.12-2.75-1.42-4.21-2.09-.12,1.65-.9,3.71-.2,4.87C138.82,113.39,141,114.79,142.71,116.44Z"/><path class="cls-2" d="M40.07,99l-6.42,3.73c1.9,5.65,4,11.73,5.94,17.88a4.72,4.72,0,0,1-.75,3.22c-2.33,4.05-.73,6.64,3,8.37,4.82,2.24,5.29,4.68,1.68,8.38a4.28,4.28,0,0,0-1.18,3.26c.66,2.82,1.79,5.54,3.07,9.3,2.42-2.69,4.75-4.92,6.64-7.47,2.77-3.74,5.3-7.67,7.75-11.63.72-1.16.84-2.71,1.23-4.08-1.51-.26-3-.58-4.55-.77a14.92,14.92,0,0,1-3.6-.54C67,122,76,113.35,66.05,96.82l1.47-.91c2.17,1.19,4.58,2.1,6.39,3.7.77.69.49,2.83.33,4.27-.66,5.76-1.4,11.52-2.26,17.25a25.83,25.83,0,0,1-1.73,7.18c-3,6.36-1.83,12.27,2.42,17.21,1.71,2,5.35,2.32,9.21,3.84l-7.14,3,1.75,1.05c-4.16-1.44-8.27-3.8-12.49-4-3.14-.16-6.12-6.42-9.23-.84-1.75,3.11-2.48,6.79-3.57,10-1.57-.41-4.49-1.67-4.83-1.17-2.37,3.48-1.71,6.83.36,8.49,7.51-1.59,14.18-2.14,20.11-4.51,5.54-2.22,10.19-.91,15.49.27-3.86,3.85-10.56-2.11-13.72,5.78l23,5.23c-2,.91-3.59,2.16-5.25,2.28-7.12.53-14.27.73-21.41,1-1.45.06-2.9,0-5.51,0,1.5,2.87,2.56,5,3.74,7.06.41.7,1.49,1.12,1.67,1.82,2,8.13,8.43,9.24,16.29,9.21-10.91,4.95-16.47-2.35-22.87-7.52-2.2-1.78-4.93-2.94-6.95-4.87-3.66-3.51-7.46-7-10.32-11.19A52.55,52.55,0,0,1,32,145.22c-.32-3.19-1.66-5.05-4.94-6A10.73,10.73,0,0,1,22,135.54a123.5,123.5,0,0,1-8.34-12.42c-1.71-2.92-2.87-5.69-.82-9.67A8.89,8.89,0,0,0,11,102.55c-1.5-1.44-.81-6.41.42-9.06,1.35-2.91,4.55-2.94,7.16-.49.59.55,1.31,1,3.2,2.28.48-5.54,1.49-10.22,1.17-14.8A63.5,63.5,0,0,1,28.5,49.37a11.57,11.57,0,0,1,2.72-3.49c.72-.68,2.18-1.54,2.71-1.25,1,.56,2.3,2,2.21,2.89-.39,4.07,1,7,4.22,9.46.74.58.11,2.93.11,5.63L50,72.73c-2,1-4.39,1.64-5.63,3.21a5.33,5.33,0,0,0,0,5.18,30.8,30.8,0,0,0,7.35,6c2.81,1.76,5.95,3,8.48,5.47L46.82,90.12c-2.38,3.13-4.6,6.06-6.83,9Z"/><path d="M40.69,114.52c-5.59-5-3.21-10.23-.62-15.51L40,99.1c9.31-7,15.36-7,23.47.35,2,1.84,3.14,4.68,4.67,7.06L67,108.16,59,106.25c-1.63.81-4.77,4.14-8.24-1.66l4.52,1.28c-1.19-3.94-4-4.5-6.94-3.67-4.26,1.2-3.7,4.36-2.1,7.22l-5.61,5.24Z"/><path class="cls-2" d="M101.26,101.66c-4.83-.06-6.91,7.63-13.08,4.46,1.91-6.1,6.31-9,12-10a14.86,14.86,0,0,1,14.44,4.79c3.73,4.07.64,6.24-2.42,9.08-.35-2-.63-3.56-.9-5.12-2,.75-4.35,2.46-6,2S102.67,103.61,101.26,101.66Z"/><path d="M85.92,107.07c-3.59-5-2.29-9.37,1-12.19s7-5.72,12.18-4c1.93.65,4.25,0,6.34.32a18.71,18.71,0,0,1,7.32,2.62C100.79,92,89.92,91.69,85.92,107.07Z"/><path class="cls-2" d="M145.76,121c4.53-8.11,2.6-16.42,1.28-24.74-.17-1.11.45-2.35.7-3.53,1.24.54,3.43.9,3.58,1.67.72,3.66,1.69,7.56,1.07,11.12-.94,5.43-3.12,10.65-4.77,16Z"/><path class="cls-2" d="M142.71,116.44c-1.75-1.65-3.89-3-5.09-5-.7-1.16.08-3.22.2-4.87,1.46.67,3.67,1,4.21,2.09,1.08,2.2,1.23,4.85,1.77,7.31Z"/><path d="M40.69,114.52l-.1.14c.14-.07.29-.15.44-.21,2.1-.9,4.34-2.29,5.73.85.27.61-.36,1.63-.58,2.45Z"/></g></g></svg>