<svg xmlns="http://www.w3.org/2000/svg" viewBox="0 0 311 298.26"><defs><style>.cls-1{fill:none;}.cls-2{fill:#fff;}.cls-3{fill:#212121;}</style></defs><g id="Layer_2" data-name="Layer 2"><g id="Section2-img"><rect class="cls-1" width="311" height="298.26" rx="24.21"/><path class="cls-2" d="M253,187.08c0,26.34-66,2.67-66,29-61.33,0-56.67,50-118,50v-217c44.67,0,89.33-38,134-38,1.81,14.86,3.66,10.71,5.43,25.57.79,6.61,1.77,13.22,2.09,19.86.67,13.58.88,27.18,1.5,40.77,0,1.12,1.86,3.12,2.75,3.07,5.28-.31,7.91,2.58,8.67,7.13a28,28,0,0,1,.06,10.82,127.92,127.92,0,0,1-6.29,19c-2.61,6.18-4.72,13.24-13.78,13.71,1.91,4,3.7,7.18,5,10.57,2.08,5.42,5.79,7.68,11.57,7.41,9.64-.44,17.3,3.77,23.88,10.57C246.62,182.33,250,184.58,253,187.08ZM109.69,125.6l5.49,3.24c.22-.83.85-1.84.58-2.46-1.39-3.14-3.63-1.75-5.73-.85l-.45.21,5.62-5.24c-1.6-2.86-2.16-6,2.1-7.22,2.92-.83,5.75-.26,6.94,3.68l-4.52-1.29c3.47,5.8,6.61,2.48,8.24,1.67l8,1.9,1.12-1.65c-1.53-2.38-2.64-5.22-4.67-7.06-8.11-7.37-14.16-7.33-23.47-.34l6.83-9,13.44,2.53c-2.53-2.48-5.67-3.71-8.48-5.48a30.56,30.56,0,0,1-7.35-6,5.33,5.33,0,0,1,0-5.18c1.24-1.56,3.68-2.18,5.63-3.21l-9.55-10.12c0-2.69.63-5-.11-5.63-3.21-2.5-4.61-5.38-4.22-9.45.09-.93-1.2-2.34-2.21-2.89-.53-.3-2,.57-2.71,1.25a11.45,11.45,0,0,0-2.72,3.49,63.48,63.48,0,0,0-5.58,31.11c.32,4.58-.69,9.25-1.17,14.79-1.89-1.33-2.61-1.73-3.2-2.27-2.61-2.46-5.81-2.42-7.16.49-1.23,2.65-1.92,7.61-.42,9a8.89,8.89,0,0,1,1.85,10.9c-2,4-.89,6.75.82,9.68A123.5,123.5,0,0,0,91,146.63a10.73,10.73,0,0,0,5.12,3.69c3.28.93,4.62,2.8,4.94,6A52.63,52.63,0,0,0,110,181.47c2.86,4.13,6.66,7.67,10.32,11.18,2,1.93,4.75,3.1,7,4.87,6.4,5.18,12,12.47,22.87,7.52-7.86,0-14.26-1.07-16.29-9.21-.18-.69-1.26-1.11-1.67-1.81-1.18-2.06-2.24-4.19-3.74-7.07,2.61,0,4.06.05,5.51,0,7.14-.29,14.29-.49,21.41-1,1.66-.12,3.24-1.37,5.25-2.28l-22.95-5.23c3.16-7.9,9.86-1.94,13.72-5.78-5.3-1.18-10-2.49-15.49-.27-5.93,2.37-12.6,2.91-20.11,4.51-2.07-1.67-2.73-5-.36-8.5.34-.49,3.26.77,4.83,1.17,1.09-3.16,1.82-6.84,3.57-10,3.11-5.58,6.09.68,9.23.84,4.22.22,8.33,2.58,12.49,4l-1.75-1,7.14-3c-3.86-1.51-7.5-1.84-9.21-3.83-4.25-5-5.41-10.85-2.42-17.22a25.66,25.66,0,0,0,1.73-7.18c.86-5.73,1.6-11.48,2.26-17.24.16-1.44.44-3.58-.33-4.27-1.81-1.6-4.22-2.52-6.39-3.71l-1.47.92c9.9,16.53,1,25.21-13.15,31.85a15.31,15.31,0,0,0,3.6.53c1.53.19,3,.51,4.55.78-.39,1.37-.51,2.91-1.23,4.08-2.45,3.95-5,7.88-7.75,11.62-1.89,2.56-4.22,4.78-6.64,7.47-1.28-3.76-2.41-6.47-3.07-9.3a4.26,4.26,0,0,1,1.18-3.25c3.61-3.7,3.14-6.15-1.68-8.38-3.75-1.74-5.35-4.32-3-8.38a4.72,4.72,0,0,0,.75-3.22c-1.91-6.14-4-12.22-5.94-17.87l6.42-3.74C106.48,115.38,104.1,120.65,109.69,125.6Zm60.57-12.86c1.41,2,2.39,4.68,4,5.16s4-1.22,6-2l.9,5.12c3.06-2.83,6.15-5,2.42-9.08a14.86,14.86,0,0,0-14.44-4.78c-5.69,1-10.09,3.91-12,10C163.35,120.38,165.43,112.68,170.26,112.74Zm-15.34,5.42c4-15.39,14.87-15,26.88-13.25a18.71,18.71,0,0,0-7.32-2.62c-2.09-.3-4.41.34-6.34-.31-5.17-1.74-9,1.28-12.18,4S151.33,113.16,154.92,118.16Zm59.84,13.93,1.86.47c1.65-5.3,3.83-10.52,4.77-16,.62-3.56-.35-7.47-1.07-11.13-.15-.76-2.34-1.12-3.58-1.67-.25,1.18-.87,2.42-.7,3.53C217.36,115.67,219.29,124,214.76,132.09Zm-3-4.56,1.09-.5c-.54-2.47-.69-5.12-1.77-7.32-.54-1.11-2.75-1.42-4.21-2.09-.12,1.66-.9,3.72-.2,4.88C207.82,124.47,210,125.88,211.71,127.53Z"/><path class="cls-3" d="M109.07,110.1l-6.42,3.74c1.9,5.65,4,11.73,5.94,17.87a4.72,4.72,0,0,1-.75,3.22c-2.33,4.06-.73,6.64,3,8.38,4.82,2.23,5.29,4.68,1.68,8.38a4.26,4.26,0,0,0-1.18,3.25c.66,2.83,1.79,5.54,3.07,9.3,2.42-2.69,4.75-4.91,6.64-7.47,2.77-3.74,5.3-7.67,7.75-11.62.72-1.17.84-2.71,1.23-4.08-1.51-.27-3-.59-4.55-.78a15.31,15.31,0,0,1-3.6-.53c14.13-6.64,23-15.32,13.15-31.85l1.47-.92c2.17,1.19,4.58,2.11,6.39,3.71.77.69.49,2.83.33,4.27-.66,5.76-1.4,11.51-2.26,17.24a25.66,25.66,0,0,1-1.73,7.18c-3,6.37-1.83,12.27,2.42,17.22,1.71,2,5.35,2.32,9.21,3.83l-7.14,3,1.75,1c-4.16-1.44-8.27-3.8-12.49-4-3.14-.16-6.12-6.42-9.23-.84-1.75,3.12-2.48,6.8-3.57,10-1.57-.4-4.49-1.66-4.83-1.17-2.37,3.49-1.71,6.83.36,8.5,7.51-1.6,14.18-2.14,20.11-4.51,5.54-2.22,10.19-.91,15.49.27-3.86,3.84-10.56-2.12-13.72,5.78l22.95,5.23c-2,.91-3.59,2.16-5.25,2.28-7.12.52-14.27.72-21.41,1-1.45.06-2.9,0-5.51,0,1.5,2.88,2.56,5,3.74,7.07.41.7,1.49,1.12,1.67,1.81,2,8.14,8.43,9.25,16.29,9.21-10.91,5-16.47-2.34-22.87-7.52-2.2-1.77-4.93-2.94-7-4.87-3.66-3.51-7.46-7.05-10.32-11.18A52.63,52.63,0,0,1,101,156.31c-.32-3.19-1.66-5.06-4.94-6A10.73,10.73,0,0,1,91,146.63a123.5,123.5,0,0,1-8.34-12.42c-1.71-2.93-2.87-5.7-.82-9.68A8.89,8.89,0,0,0,80,113.63c-1.5-1.44-.81-6.4.42-9,1.35-2.91,4.55-3,7.16-.49.59.54,1.31.94,3.2,2.27.48-5.54,1.49-10.21,1.17-14.79A63.48,63.48,0,0,1,97.5,60.46,11.45,11.45,0,0,1,100.22,57c.72-.68,2.18-1.55,2.71-1.25,1,.55,2.3,2,2.21,2.89-.39,4.07,1,7,4.22,9.45.74.58.11,2.94.11,5.63L119,83.81c-2,1-4.39,1.65-5.63,3.21a5.33,5.33,0,0,0,0,5.18,30.56,30.56,0,0,0,7.35,6c2.81,1.77,6,3,8.48,5.48l-13.44-2.53-6.83,9Z"/><path d="M109.69,125.6c-5.59-4.95-3.21-10.22-.62-15.5l-.08.09c9.31-7,15.36-7,23.47.34,2,1.84,3.14,4.68,4.67,7.06L136,119.24l-8-1.9c-1.63.81-4.77,4.13-8.24-1.67l4.52,1.29c-1.19-3.94-4-4.51-6.94-3.68-4.26,1.21-3.7,4.36-2.1,7.22l-5.61,5.24Z"/><path class="cls-3" d="M170.26,112.74c-4.83-.06-6.91,7.64-13.08,4.46,1.91-6.1,6.31-9,12-10A14.86,14.86,0,0,1,183.62,112c3.73,4.07.64,6.25-2.42,9.08-.35-2-.63-3.55-.9-5.12-2,.75-4.35,2.47-6,2S171.67,114.69,170.26,112.74Z"/><path d="M154.92,118.16c-3.59-5-2.29-9.37,1-12.19s7-5.73,12.18-4c1.93.65,4.25,0,6.34.31a18.71,18.71,0,0,1,7.32,2.62C169.79,103.12,158.92,102.77,154.92,118.16Z"/><path class="cls-3" d="M214.76,132.09c4.53-8.11,2.6-16.42,1.28-24.75-.17-1.11.45-2.35.7-3.53,1.24.55,3.43.91,3.58,1.67.72,3.66,1.69,7.57,1.07,11.13-.94,5.43-3.12,10.65-4.77,16Z"/><path class="cls-3" d="M211.71,127.53c-1.75-1.65-3.89-3.06-5.09-5-.7-1.16.08-3.22.2-4.88,1.46.67,3.67,1,4.21,2.09,1.08,2.2,1.23,4.85,1.77,7.32Z"/><path d="M109.69,125.6l-.1.14.44-.21c2.1-.9,4.34-2.29,5.73.85.27.62-.36,1.63-.58,2.46Z"/></g></g></svg>