<svg xmlns="http://www.w3.org/2000/svg" viewBox="0 0 311 298.26"><defs><style>.cls-1{fill:none;}.cls-2{fill:#212121;}.cls-3{fill:#fff;}</style></defs><g id="Layer_2" data-name="Layer 2"><g id="Section2-img"><rect class="cls-1" width="311" height="298.26" rx="24.21"/><path class="cls-2" d="M57,211.52l-10.06-4.6-.48,1.45,10.64,3.06c.31.84.37,2.07,1,2.46a40,40,0,0,0,7,3.75c3.59,1.35,7.32,2.31,11,3.43l.5-1.51Q66.8,215.54,57,211.52Zm113.8-68.59c2.78,2.28,5.65,4.46,8.31,6.88,3,2.71,3.61,8.34,1.4,11.49-.3-2.17-.59-4.22-1-7.41a49,49,0,0,0-4.25,4.58c-1.71,2.46-3.2,5.09-4.81,7.67a15.22,15.22,0,0,1-.8-3.26c-.09-3-1.56-4.55-4.49-4.23a12.38,12.38,0,0,0-4.22,1c-2.88,1.48-5.4.87-8.36,0-2.51-.78-5.49-.08-8.26.05-.94,0-1.88.62-2.78.54-3.13-.24-3.65,1.47-2.84,3.85.47,1.38,1.27,3.07,2.42,3.7,2.47,1.34,5.33,3.07,7.91,2.89,7.33-.49,15.5,2.23,21.53-4.55-.73,1.49-1.56,2.94-2.15,4.48a38.87,38.87,0,0,0-1.12,4.14l1.16.4,4-5a4.81,4.81,0,0,1-.35,3.63c-1.24,2.5-3.13,4.82-3.78,7.45-1,4.12-3.5,4.84-7,4.38-1.69-.23-3.39-.37-5.08-.58-4.31-.54-7.51,1.2-10.06,4.6-2.71,3.63-2.73,5.48.2,8.28s5.81,2.79,9,0a11.15,11.15,0,0,1,3.15-2.44,16.11,16.11,0,0,1,4.26-.39c-.2,1.31-.41,2.63-.69,4.42-.19-.09.34.38.86.38,6.34-.08,12.85.3,16-7.19.92-2.21,2.64-4.07,3.91-6.13,7.56-12.29,11.32-28.08,9.55-40l-1.06-.16-4,25.25-1.13-.14a4.93,4.93,0,0,1-.19-1.3c.83-7.11,1.58-14.23,2.6-21.31a12.23,12.23,0,0,1,2.16-5.55c3.43-4.4,6.76-8.92,6.36-14.73s-1.6-11.77-2.49-18l-2,1.66c.11,2.48.52,4.18.2,5.72-1.13,5.37-5.46,7.68-9.87,9.93-4.67,2.38-6.85,2.13-10.74-1.43-2.6-2.38-5.2-5-9.15-3l-1-2.73a38.3,38.3,0,0,0-.44,6.25c-.08,2.65-.33,5.26,3.62,5.23.71,0,1.43,1.18,2,1.65l-4.44,1.8.41,1c4.62,0,5.32,1.18,7.77,6.46l-1.07-.06c0,1.93.48,3.93-.14,5.5s-2.47,2.61-3.48,4.09a13.79,13.79,0,0,0-1.24,3.6,12.08,12.08,0,0,0,3.13.86c4.32,0,7.74-1.95,10.6-5.59-1.28-1.16-2.71-2.26-3.91-3.57C173.34,146.32,172.1,144.59,170.78,142.93Zm-42.62,51.41,1.53-1.25c-4.85-7.22-9.57-14.54-14.61-21.63-3.23-4.52-6-9-6-14.84A20.09,20.09,0,0,0,104.79,144c-1.24-1.59-1.7-3.78-2.81-6.41,5.4,3.1,7.75,9.8,14.35,8-.24,2.62-.71,5.37-.71,8.12,0,3.88.53,7.77.55,11.66,0,4.43,2.36,7.27,5.77,9.53,2.2,1.46,3.53.87,3.49-1.8,0-2-.71-4.14-.51-6.15a5.35,5.35,0,0,1,2.2-3.37c.5-.34,2.2.49,3,1.2,1.59,1.49,2.85,3.33,4.37,4.9,2.23,2.28,4.57,4.45,6.86,6.66l1.27-.92c-.94-1.8-1.58-3.86-2.87-5.34-4.12-4.74-8.53-9.23-12.7-13.92-.46-.51-.15-1.71-.2-2.59a16.18,16.18,0,0,0,13.93,3.18,77.79,77.79,0,0,0-.06-8.37c-.41-3.86-3-4.91-6.14-2.68-6.75,4.73-12.65,10-12.73,19.21,0,.11-.33.22-.42.27-1.32-3.93-2.75-7.84-3.89-11.82-.3-1.06.2-2.39.5-3.55.38-1.53,1-3,1.39-4.54.77-3,.75-5.53-2.91-6.72-1-.34-1.85-1.49-2.74-2.3-2.23-2-4.22-4.45-6.72-6.08-4.6-3-3.7-7.57-4-11.82-.2-3.42,2.13-4.83,5.72-5.35l-2.7-1,.15-.6,7.49.62c-3.1-5.32-3.74-11-9.25-14-6.27-3.41-7.56-7.91-4.77-14.35,1.54-3.56,2.7-7.29,4.14-10.9,1-2.44,1.85-5,4.15-6.35q.83,7.65,1.52,14.19l14.23-2.07c-.33.69-.19.49-.13.26a6.51,6.51,0,0,0,.14-1.08c.82-12.72,8-20.65,19.51-24.69,6.25-2.2,13-4,19.48-.32,11.09,6.38,17.69,15.75,18.33,28.81.15,3,0,6,0,9.13,1.3-.31,2.69-.72,4.11-1s2.81-.31,4.21-.46C177.65,92.07,170,99.82,163,108.87c2.69,2.54,5.06,2.12,7.26.38,1.52-1.2,2.69-2.85,4.2-4.06,5-4,10.15-7.58,17.25-5.21,3.74,1.25,5.95-.64,5.84-4.59-.19-7.18-.56-14.36-.82-21.54-.32-8.51-2-16.72-6.19-24.18C183,36.28,171,29.34,156.24,26.77c-12.22-2.12-24.23-1.64-35.67,4-5.65,2.77-10,6.92-14.64,11.12a47.74,47.74,0,0,0-15,26c-2.55,11.52-.81,23.06-.07,34.59a7.41,7.41,0,0,0,1,2.27l1.23-.2V86.88l1,0a7.09,7.09,0,0,1,.48,1.55c.38,5.54.82,11.07,1,16.61,0,1.41-.75,2.84-1.17,4.27l-1.13-.07c-1.18-1.66-2.14-3.58-3.61-4.93s-3.55-3-5-2.65-2.79,2.83-3.14,4.58c-.41,2.11.3,4.44.6,7.47,1.23-2.89,2.08-4.88,3-6.94,5.62,3.29,9.29,10.43,7.66,15.47-1,3.23-.37,5,2.06,7.15,3,2.59,3.08,7.34,1,9.16-2.9-3.06-5.86-6-8.64-9.17a22.37,22.37,0,0,1-3.1-4.7,18.13,18.13,0,0,1-1-3.73l-1.13.34c.91,3.23,1.4,6.66,2.84,9.63,2.37,4.86,5.33,9.44,8.11,14.11,1.34,2.27,3,2.19,4.7-.07.34-.46.76-.86,1.73-2a47.63,47.63,0,0,1,1.35,6.14c.35,4.25.44,8.51.66,12.77.25,4.64,1.52,9,4.93,12.24C113.47,181,120.85,187.61,128.16,194.34ZM106.4,93.57c-.39,2.8,1.48,4.71,4.72,6,3.47,1.38,6.17-.22,8.75-1.88,4.67-3,8.82-3.09,13.49.07,1.8,1.22,3.57,2.73,5.58,3.32,1.29.37,3.19-.42,4.44-1.25.45-.3.21-2.55-.41-3.41-5.88-8-13.39-13.79-23.45-15.26C112.33,80.11,106.32,85.66,106.4,93.57ZM243.82,204.7l.25.59c4.47-1.55,8.92-3.17,13.41-4.63,11.66-3.79,22.87-9.12,35.32-10.29.7-.07,1.27-1.53,1.9-2.35-.81-.62-1.7-1.85-2.4-1.75a42.84,42.84,0,0,0-9.57,2.14C271.1,193.06,259.57,198,248,202.83c-.79.33-1.6.61-2.38.95C245,204.05,244.42,204.39,243.82,204.7ZM96.87,163.47c-1.49,8.44-4.1,16.2,4.09,21.85l1.14-2.44c.39,1.86.64,3.07.9,4.27C104.18,178.69,100.64,171.52,96.87,163.47Zm-14.1,16.76c-7.27-10.87-29.61-18-37.55-8.73,1.65-.37,2.79-.59,3.92-.89,5.31-1.41,10.5-1.63,15.62.94C70.8,174.57,76.93,177.42,82.77,180.23Zm161.67,8.36,0,1.28h32.16v-1.3C265.87,188.36,255.22,183.3,244.44,188.59ZM53.29,186.73l.4-.49c-5.6-1.65-11.17-3.42-16.83-4.89-1.51-.39-3.82-1.1-4.23,1.78s1.24,3.61,3.66,3.61Zm162.65,2.81c3.87-3.16,6.61-6.34,10.07-7.95s7.52-1.54,10.82-2.12C227.69,175.59,224.51,177,215.94,189.54Zm-51.65-44.25,1,.56,2.25-5.21-6-1.88-1.28-11.34-1.47.27c1.05,6,2.11,11.93,3.26,18.44l2.78-3.42.45.36Zm-20.2-.85c7.92,3,8.89,2.58,9.76-3-1.78-.7-3.86-2.32-5.17-1.84C146.94,140.21,145.81,142.49,144.09,144.44Zm25-26.41a19.6,19.6,0,0,1,2.79-.61,22.09,22.09,0,0,1,2.93.12c.39-3.86,1.46-3.93,6.83-.33l3.36-2.85C179.21,113.81,173.49,112.74,169.14,118Zm-84,60.91c3.12-5.07,3.55-11.75,9.82-14.83C86.86,166,87.74,173.61,85.14,178.94Zm34.65-65.84c3.74,5,4.86,5,9,0Zm79.54-11.7c-1,4-1.94,7.43-2.85,10.88C198.61,109.11,203.05,106.56,199.33,101.4Zm-65.52,11.89-.52.9c4.68,4,4.68,4,8.26,3.13ZM156,120l-.82,0V135.9C155.5,130,155.76,125,156,120Zm34.11,57-.17,1.19,9.35,2.24.26-1Z"/><path class="cls-3" d="M128.16,194.34c-7.31-6.73-14.69-13.38-21.87-20.24-3.41-3.25-4.68-7.6-4.93-12.24-.22-4.26-.31-8.52-.66-12.77A47.63,47.63,0,0,0,99.35,143c-1,1.1-1.39,1.5-1.73,2-1.66,2.26-3.36,2.34-4.7.07-2.78-4.67-5.74-9.25-8.11-14.11-1.44-3-1.93-6.4-2.84-9.63l1.13-.34a18.13,18.13,0,0,0,1,3.73,22.37,22.37,0,0,0,3.1,4.7c2.78,3.14,5.74,6.11,8.64,9.17,2.07-1.82,2-6.57-1-9.16-2.43-2.11-3.11-3.92-2.06-7.15,1.63-5-2-12.18-7.66-15.47-.87,2.06-1.72,4-3,6.94-.3-3-1-5.36-.6-7.47.35-1.75,1.77-4.28,3.14-4.58s3.57,1.37,5,2.65,2.43,3.27,3.61,4.93l1.13.07c.42-1.43,1.22-2.86,1.17-4.27-.19-5.54-.63-11.07-1-16.61a7.09,7.09,0,0,0-.48-1.55l-1,0V104.5l-1.23.2a7.41,7.41,0,0,1-1-2.27C90.14,90.9,88.4,79.36,91,67.84a47.74,47.74,0,0,1,15-26c4.63-4.2,9-8.35,14.64-11.12,11.44-5.63,23.45-6.11,35.67-4C171,29.34,183,36.28,190.57,49.67c4.21,7.46,5.87,15.67,6.19,24.18.26,7.18.63,14.36.82,21.54.11,4-2.1,5.84-5.84,4.59-7.1-2.37-12.22,1.19-17.25,5.21-1.51,1.21-2.68,2.86-4.2,4.06-2.2,1.74-4.57,2.16-7.26-.38,6.95-9.05,14.62-16.8,26.4-19.64-1.4.15-2.82.22-4.21.46s-2.81.66-4.11,1c0-3.14.13-6.14,0-9.13-.64-13.06-7.24-22.43-18.33-28.81-6.47-3.73-13.23-1.88-19.48.32-11.47,4-18.69,12-19.51,24.69a6.51,6.51,0,0,1-.14,1.08c-.06.23-.2.43.13-.26l-14.23,2.07q-.7-6.54-1.52-14.19c-2.3,1.33-3.17,3.91-4.15,6.35-1.44,3.61-2.6,7.34-4.14,10.9-2.79,6.44-1.5,10.94,4.77,14.35,5.51,3,6.15,8.67,9.25,14l-7.49-.62-.15.6,2.7,1c-3.59.52-5.92,1.93-5.72,5.35.25,4.25-.65,8.82,4,11.82,2.5,1.63,4.49,4,6.72,6.08.89.81,1.69,2,2.74,2.3,3.66,1.19,3.68,3.76,2.91,6.72-.4,1.53-1,3-1.39,4.54-.3,1.16-.8,2.49-.5,3.55,1.14,4,2.57,7.89,3.89,11.82.09-.05.42-.16.42-.27.08-9.17,6-14.48,12.73-19.21,3.17-2.23,5.73-1.18,6.14,2.68a77.79,77.79,0,0,1,.06,8.37,16.18,16.18,0,0,1-13.93-3.18c.05.88-.26,2.08.2,2.59,4.17,4.69,8.58,9.18,12.7,13.92,1.29,1.48,1.93,3.54,2.87,5.34l-1.27.92c-2.29-2.21-4.63-4.38-6.86-6.66-1.52-1.57-2.78-3.41-4.37-4.9-.77-.71-2.47-1.54-3-1.2a5.35,5.35,0,0,0-2.2,3.37c-.2,2,.49,4.1.51,6.15,0,2.67-1.29,3.26-3.49,1.8-3.41-2.26-5.76-5.1-5.77-9.53,0-3.89-.54-7.78-.55-11.66,0-2.75.47-5.5.71-8.12-6.6,1.8-9-4.9-14.35-8,1.11,2.63,1.57,4.82,2.81,6.41a20.09,20.09,0,0,1,4.27,12.58c0,5.89,2.79,10.32,6,14.84,5,7.09,9.76,14.41,14.61,21.63ZM99.49,136.13l1.32,0-1.14-20.88-.18,0Z"/><path class="cls-3" d="M170.43,166.12c1.58-2.56,3.07-5.19,4.78-7.65a49,49,0,0,1,4.25-4.58c.44,3.19.73,5.24,1,7.41,2.21-3.15,1.58-8.78-1.4-11.49-2.66-2.42-5.53-4.6-8.31-6.88l.11.11c-2.45-5.28-3.15-6.5-7.77-6.46l-.41-1,4.44-1.8c-.53-.47-1.25-1.65-2-1.65-3.95,0-3.7-2.58-3.62-5.23a38.3,38.3,0,0,1,.44-6.25l1,2.73c3.95-2,6.55.63,9.15,3,3.89,3.56,6.07,3.81,10.74,1.43,4.41-2.25,8.74-4.56,9.87-9.93.32-1.54-.09-3.24-.2-5.72l2-1.66c.89,6.18,2.09,12,2.49,18s-2.93,10.33-6.36,14.73a12.23,12.23,0,0,0-2.16,5.55c-1,7.08-1.77,14.2-2.6,21.31a4.93,4.93,0,0,0,.19,1.3l1.13.14,4-25.25,1.06.16c1.77,11.92-2,27.71-9.55,40-1.27,2.06-3,3.92-3.91,6.13-3.12,7.49-9.63,7.11-16,7.19-.52,0-1-.47-.86-.38.28-1.79.49-3.11.69-4.42a16.11,16.11,0,0,0-4.26.39,11.15,11.15,0,0,0-3.15,2.44c-3.14,2.82-6,2.84-9,0s-2.91-4.65-.2-8.28c2.55-3.4,5.75-5.14,10.06-4.6,1.69.21,3.39.35,5.08.58,3.54.46,6-.26,7-4.38.65-2.63,2.54-4.95,3.78-7.45a4.81,4.81,0,0,0,.35-3.63l-4,5-1.16-.4a38.87,38.87,0,0,1,1.12-4.14c.59-1.54,1.42-3,2.15-4.48Z"/><path class="cls-3" d="M106.4,93.57c-.08-7.91,5.93-13.46,13.12-12.41,10.06,1.47,17.57,7.24,23.45,15.26.62.86.86,3.11.41,3.41-1.25.83-3.15,1.62-4.44,1.25-2-.59-3.78-2.1-5.58-3.32-4.67-3.16-8.82-3.06-13.49-.07-2.58,1.66-5.28,3.26-8.75,1.88C107.88,98.28,106,96.37,106.4,93.57Z"/><path class="cls-3" d="M170.51,166.05c-6,6.78-14.2,4.06-21.53,4.55-2.58.18-5.44-1.55-7.91-2.89-1.15-.63-1.95-2.32-2.42-3.7-.81-2.38-.29-4.09,2.84-3.85.9.08,1.84-.49,2.78-.54,2.77-.13,5.75-.83,8.26-.05,3,.91,5.48,1.52,8.36,0a12.38,12.38,0,0,1,4.22-1c2.93-.32,4.4,1.22,4.49,4.23a14,14,0,0,0,.82,3.25Z"/><path class="cls-3" d="M243.82,204.7c.6-.31,1.19-.65,1.81-.92.78-.34,1.59-.62,2.38-.95,11.56-4.83,23.09-9.77,34.72-14.42a42.84,42.84,0,0,1,9.57-2.14c.7-.1,1.59,1.13,2.4,1.75-.63.82-1.2,2.28-1.9,2.35-12.45,1.17-23.66,6.5-35.32,10.29-4.49,1.46-8.94,3.08-13.41,4.63Z"/><path class="cls-3" d="M96.87,163.47c3.77,8.05,7.31,15.22,6.13,23.68-.26-1.2-.51-2.41-.9-4.27L101,185.32C92.77,179.67,95.38,171.91,96.87,163.47Z"/><path class="cls-3" d="M82.77,180.23c-5.84-2.81-12-5.66-18-8.68-5.12-2.57-10.31-2.35-15.62-.94-1.13.3-2.27.52-3.92.89C53.16,162.24,75.5,169.36,82.77,180.23Z"/><path class="cls-3" d="M170.78,142.93c1.32,1.66,2.56,3.39,4,4.94,1.2,1.31,2.63,2.41,3.91,3.57-2.86,3.64-6.28,5.58-10.6,5.59a12.08,12.08,0,0,1-3.13-.86,13.79,13.79,0,0,1,1.24-3.6c1-1.48,2.87-2.52,3.48-4.09s.14-3.57.14-5.5l1.07.06Z"/><path class="cls-3" d="M244.44,188.59c10.78-5.29,21.43-.23,32.14,0v1.3H244.41Z"/><path class="cls-3" d="M53.29,186.73h-17c-2.42,0-4.07-.77-3.66-3.61s2.72-2.17,4.23-1.78c5.66,1.47,11.23,3.24,16.83,4.89Z"/><path class="cls-3" d="M57,211.5l19.59,8.06-.5,1.51c-3.68-1.12-7.41-2.08-11-3.43a40,40,0,0,1-7-3.75c-.6-.39-.66-1.62-1-2.46Z"/><path class="cls-3" d="M215.94,189.54c8.57-12.51,11.75-13.95,20.89-10.07-3.3.58-7.43.55-10.82,2.12S219.81,186.38,215.94,189.54Z"/><path class="cls-3" d="M164.29,145.29l1-2.22-.45-.36L162,146.13c-1.15-6.51-2.21-12.48-3.26-18.44l1.47-.27,1.28,11.34,6,1.88-2.25,5.21Z"/><path class="cls-3" d="M144.09,144.44c1.72-1.95,2.85-4.23,4.59-4.86,1.31-.48,3.39,1.14,5.17,1.84C153,147,152,147.4,144.09,144.44Z"/><path class="cls-3" d="M169.14,118c4.35-5.29,10.07-4.22,15.91-3.67l-3.36,2.85c-5.37-3.6-6.44-3.53-6.83.33a22.09,22.09,0,0,0-2.93-.12A19.6,19.6,0,0,0,169.14,118Z"/><path class="cls-3" d="M85.14,178.94c2.6-5.33,1.72-12.95,9.82-14.83C88.69,167.19,88.26,173.87,85.14,178.94Z"/><path class="cls-3" d="M119.79,113.1h9C124.65,118.08,123.53,118.06,119.79,113.1Z"/><path class="cls-3" d="M199.33,101.4c3.72,5.16-.72,7.71-2.85,10.88C197.39,108.83,198.29,105.38,199.33,101.4Z"/><path class="cls-3" d="M133.81,113.29l7.74,4c-3.58.89-3.58.89-8.26-3.13Z"/><path class="cls-3" d="M156,120c-.26,5-.52,10-.82,15.92V120Z"/><path class="cls-3" d="M190.13,177l9.44,2.45-.26,1L190,178.17Z"/><path class="cls-3" d="M57.08,211.43l-10.64-3.06.48-1.45q5,2.31,10.07,4.59Z"/><path class="cls-2" d="M99.49,136.13V115.26l.18,0,1.14,20.88Z"/></g></g></svg>