<svg xmlns="http://www.w3.org/2000/svg" viewBox="0 0 262.13 195.46"><defs><style>.cls-1{fill:#212121;}.cls-2{fill:#fff;}</style></defs><g id="Layer_2" data-name="Layer 2"><g id="Section2-img"><path class="cls-1" d="M24.41,185.91l-10.06-4.6-.47,1.45,10.63,3.06c.31.84.37,2.08,1,2.46a40.34,40.34,0,0,0,7,3.75c3.59,1.35,7.33,2.31,11,3.43L44,194Q34.24,189.93,24.41,185.91Zm113.8-68.59c2.78,2.28,5.65,4.46,8.31,6.88,3,2.72,3.61,8.34,1.4,11.49-.3-2.17-.58-4.22-1-7.41a50.43,50.43,0,0,0-4.25,4.58c-1.71,2.47-3.2,5.09-4.8,7.67a15.25,15.25,0,0,1-.81-3.26c-.09-3-1.56-4.55-4.49-4.23a12.06,12.06,0,0,0-4.21,1c-2.88,1.47-5.41.86-8.36,0-2.52-.77-5.5-.08-8.27,0-.93.05-1.87.62-2.78.54-3.13-.24-3.65,1.47-2.83,3.85.47,1.38,1.26,3.07,2.41,3.7,2.47,1.35,5.33,3.07,7.91,2.9,7.33-.49,15.5,2.22,21.53-4.56-.73,1.49-1.56,2.94-2.15,4.48a41.4,41.4,0,0,0-1.12,4.14l1.16.4,4-5.05a4.8,4.8,0,0,1-.36,3.63c-1.24,2.5-3.13,4.82-3.78,7.45-1,4.12-3.49,4.84-7,4.38-1.69-.22-3.39-.37-5.08-.58-4.31-.54-7.51,1.2-10,4.61-2.71,3.62-2.73,5.47.19,8.27s5.81,2.79,9,0a11.33,11.33,0,0,1,3.16-2.44,16.07,16.07,0,0,1,4.26-.39c-.21,1.31-.42,2.63-.7,4.42-.19-.09.34.39.86.38,6.34-.08,12.85.3,16-7.19.92-2.21,2.64-4.06,3.91-6.13,7.56-12.29,11.32-28.08,9.55-40l-1.05-.16q-2,12.63-4,25.26l-1.13-.15a5.38,5.38,0,0,1-.19-1.3c.83-7.11,1.58-14.23,2.6-21.31a12.09,12.09,0,0,1,2.17-5.54c3.42-4.41,6.75-8.93,6.36-14.74S162.89,91.08,162,84.9l-2,1.66c.11,2.48.52,4.18.19,5.73-1.13,5.37-5.45,7.67-9.87,9.92-4.67,2.38-6.85,2.13-10.74-1.43-2.6-2.38-5.19-5-9.15-3l-1-2.73a37.19,37.19,0,0,0-.43,6.25c-.09,2.65-.34,5.26,3.62,5.23.7,0,1.42,1.18,2,1.65L130.14,110l.41,1c4.63,0,5.32,1.18,7.77,6.46l-1.07-.06c0,1.93.48,3.93-.13,5.5s-2.48,2.61-3.48,4.09a14.18,14.18,0,0,0-1.25,3.6,12.19,12.19,0,0,0,3.13.86c4.32,0,7.74-1.95,10.61-5.59-1.29-1.16-2.72-2.26-3.92-3.57C140.78,120.71,139.53,119,138.21,117.32ZM95.59,168.73l1.53-1.25c-4.85-7.22-9.56-14.54-14.61-21.62-3.22-4.53-6-9-6-14.85a20.08,20.08,0,0,0-4.26-12.58c-1.25-1.59-1.7-3.78-2.82-6.41,5.4,3.1,7.75,9.81,14.35,8-.24,2.62-.71,5.37-.7,8.12,0,3.88.53,7.77.54,11.66,0,4.43,2.37,7.27,5.78,9.53,2.19,1.46,3.52.87,3.49-1.8,0-2.05-.72-4.14-.52-6.15a5.35,5.35,0,0,1,2.2-3.37c.5-.34,2.2.49,3,1.2,1.59,1.49,2.85,3.33,4.38,4.9,2.22,2.28,4.56,4.45,6.86,6.66l1.26-.92c-.94-1.8-1.57-3.86-2.87-5.34-4.12-4.74-8.52-9.23-12.7-13.92-.46-.51-.15-1.71-.19-2.59a16.12,16.12,0,0,0,13.92,3.18,80.48,80.48,0,0,0-.05-8.37c-.42-3.86-3-4.9-6.14-2.68-6.76,4.73-12.66,10-12.74,19.21,0,.11-.33.22-.42.27-1.32-3.93-2.75-7.84-3.89-11.82-.3-1.06.2-2.39.5-3.55.38-1.53,1-3,1.39-4.54.77-3,.75-5.53-2.91-6.72-1-.34-1.85-1.49-2.73-2.3-2.23-2-4.23-4.45-6.72-6.08-4.61-3-3.71-7.56-4-11.82-.2-3.42,2.13-4.82,5.72-5.35l-2.7-1,.16-.6,7.48.62c-3.1-5.32-3.74-11-9.25-14-6.27-3.41-7.55-7.91-4.77-14.35,1.54-3.56,2.71-7.29,4.15-10.9,1-2.44,1.84-5,4.14-6.35Q76.26,48.47,77,55l14.23-2.07c-.33.7-.18.49-.13.26a7.8,7.8,0,0,0,.15-1.08c.82-12.72,8-20.65,19.5-24.69,6.25-2.2,13-4.05,19.49-.32,11.08,6.38,17.68,15.75,18.32,28.81.15,3,0,6,0,9.13,1.29-.31,2.68-.72,4.11-1s2.8-.31,4.2-.46c-11.78,2.84-19.45,10.59-26.4,19.64,2.7,2.54,5.06,2.12,7.27.38,1.52-1.2,2.68-2.85,4.2-4.06,5-4,10.14-7.58,17.24-5.21,3.74,1.25,6-.64,5.85-4.59-.2-7.18-.57-14.36-.83-21.54-.32-8.51-2-16.72-6.19-24.18-7.55-13.38-19.59-20.33-34.33-22.9C111.45-1,99.44-.48,88,5.15c-5.65,2.77-10,6.93-14.64,11.12a47.67,47.67,0,0,0-15,26c-2.56,11.53-.82,23.06-.08,34.59a7.56,7.56,0,0,0,1,2.27l1.23-.2V61.27l1-.05A7.05,7.05,0,0,1,62,62.77c.38,5.54.83,11.07,1,16.61,0,1.41-.75,2.85-1.16,4.27l-1.14-.07c-1.18-1.66-2.14-3.57-3.61-4.92s-3.55-3-5-2.66S49.35,78.83,49,80.59c-.42,2.1.29,4.43.59,7.47,1.23-2.9,2.08-4.89,2.95-7,5.63,3.29,9.3,10.43,7.66,15.47-1.05,3.23-.37,5,2.07,7.16,3,2.58,3.07,7.33,1,9.15-2.9-3-5.86-6-8.64-9.17a23.18,23.18,0,0,1-3.1-4.7,18.13,18.13,0,0,1-1-3.73l-1.13.34c.91,3.23,1.4,6.66,2.84,9.63,2.37,4.86,5.33,9.44,8.11,14.11,1.35,2.27,3,2.2,4.7-.07.34-.46.76-.86,1.73-2a47.86,47.86,0,0,1,1.36,6.14c.34,4.25.43,8.51.66,12.77.24,4.64,1.51,9,4.92,12.24C80.9,155.35,88.29,162,95.59,168.73ZM73.83,68c-.39,2.8,1.48,4.71,4.72,6,3.47,1.38,6.17-.22,8.75-1.88,4.67-3,8.82-3.09,13.49.07,1.8,1.22,3.57,2.73,5.58,3.32,1.3.38,3.19-.42,4.44-1.25.45-.3.21-2.55-.41-3.4C104.53,62.79,97,57,87,55.55,79.76,54.5,73.75,60.05,73.83,68ZM211.25,179.09l.26.59c4.46-1.55,8.91-3.17,13.4-4.63,11.66-3.79,22.87-9.12,35.32-10.29.7-.07,1.27-1.53,1.9-2.35-.81-.62-1.7-1.85-2.4-1.75a43.4,43.4,0,0,0-9.57,2.14c-11.63,4.66-23.15,9.59-34.72,14.43-.79.32-1.6.6-2.38.94C212.45,178.44,211.85,178.78,211.25,179.09ZM64.3,137.86c-1.49,8.44-4.1,16.2,4.09,21.85l1.14-2.44c.39,1.86.65,3.07.9,4.27C71.61,153.08,68.07,145.91,64.3,137.86ZM50.21,154.62c-7.28-10.87-29.62-18-37.56-8.73,1.65-.37,2.79-.59,3.92-.89,5.31-1.41,10.51-1.63,15.62.94C38.23,149,44.36,151.81,50.21,154.62ZM211.88,163l0,1.28H244l0-1.3C233.3,162.75,222.66,157.69,211.88,163ZM20.72,161.12l.4-.49C15.52,159,10,157.21,4.3,155.74c-1.52-.39-3.83-1.1-4.24,1.79s1.24,3.6,3.66,3.6Zm162.65,2.82c3.88-3.17,6.61-6.35,10.07-8s7.52-1.54,10.83-2.12C195.12,150,191.94,151.42,183.37,163.94Zm-51.65-44.26,1,.56L135,115l-6-1.88-1.28-11.34-1.47.27c1.06,6,2.11,11.93,3.26,18.44l2.79-3.42.44.36Zm-20.2-.85c7.92,3,8.89,2.58,9.76-3-1.78-.7-3.86-2.32-5.17-1.84C114.38,114.6,113.24,116.89,111.52,118.83Zm25-26.41a21.08,21.08,0,0,1,2.79-.61,24.17,24.17,0,0,1,2.94.12c.38-3.86,1.46-3.93,6.82-.33l3.36-2.85C146.65,88.2,140.92,87.13,136.57,92.42Zm-84,60.91c3.12-5.07,3.55-11.75,9.82-14.83C54.3,140.38,55.17,148,52.57,153.33ZM87.22,87.49c3.74,5,4.86,5,9,0Zm79.54-11.7-2.84,10.88C166,83.5,170.48,81,166.76,75.79ZM101.24,87.68l-.52.9c4.69,4,4.69,4,8.27,3.13Zm22.21,6.7-.82,0v15.94C122.93,104.42,123.19,99.4,123.45,94.38Zm34.11,57-.17,1.19,9.35,2.24.26-1Z"/><path class="cls-2" d="M95.59,168.73c-7.3-6.73-14.69-13.38-21.87-20.24-3.41-3.25-4.68-7.6-4.92-12.24-.23-4.26-.32-8.52-.66-12.77a47.86,47.86,0,0,0-1.36-6.14c-1,1.1-1.39,1.5-1.73,2-1.66,2.27-3.35,2.34-4.7.07-2.78-4.67-5.74-9.25-8.11-14.11-1.44-3-1.93-6.4-2.84-9.63l1.13-.34a18.13,18.13,0,0,0,1,3.73,23.18,23.18,0,0,0,3.1,4.7c2.78,3.14,5.74,6.12,8.64,9.17,2.07-1.82,2-6.57-1-9.15-2.44-2.12-3.12-3.93-2.07-7.16,1.64-5-2-12.18-7.66-15.47-.87,2.06-1.72,4-2.95,7-.3-3-1-5.37-.59-7.47.34-1.76,1.77-4.29,3.13-4.59s3.58,1.37,5,2.66,2.43,3.26,3.61,4.92l1.14.07c.41-1.42,1.21-2.86,1.16-4.27-.18-5.54-.63-11.07-1-16.61a7.05,7.05,0,0,0-.47-1.55l-1,.05V78.89l-1.23.2a7.56,7.56,0,0,1-1-2.27c-.74-11.53-2.48-23.06.08-34.59a47.67,47.67,0,0,1,15-26C78,12.08,82.35,7.92,88,5.15c11.44-5.63,23.45-6.11,35.67-4,14.74,2.57,26.78,9.52,34.33,22.9,4.21,7.46,5.87,15.67,6.19,24.18.26,7.18.63,14.36.83,21.54.1,4-2.11,5.84-5.85,4.59-7.1-2.37-12.22,1.19-17.24,5.21-1.52,1.21-2.68,2.86-4.2,4.06-2.21,1.74-4.57,2.16-7.27-.38,6.95-9.05,14.62-16.8,26.4-19.64-1.4.15-2.82.22-4.2.46s-2.82.66-4.11,1c0-3.14.12-6.14,0-9.13-.64-13.06-7.24-22.43-18.32-28.81-6.47-3.73-13.24-1.88-19.49.32-11.47,4-18.68,12-19.5,24.69a7.8,7.8,0,0,1-.15,1.08c0,.23-.2.44.13-.26L77,55q-.69-6.54-1.52-14.19c-2.3,1.33-3.17,3.91-4.14,6.35-1.44,3.61-2.61,7.34-4.15,10.9-2.78,6.44-1.5,10.94,4.77,14.35,5.51,3,6.15,8.67,9.25,14l-7.48-.62-.16.6,2.7,1c-3.59.53-5.92,1.93-5.72,5.35.25,4.26-.65,8.83,4,11.82,2.49,1.63,4.49,4,6.72,6.08.88.81,1.68,2,2.73,2.3,3.66,1.19,3.68,3.76,2.91,6.72-.4,1.53-1,3-1.39,4.54-.3,1.16-.8,2.49-.5,3.55,1.14,4,2.57,7.89,3.89,11.82.09-.05.42-.16.42-.27.08-9.17,6-14.48,12.74-19.21,3.17-2.22,5.72-1.18,6.14,2.68a80.48,80.48,0,0,1,.05,8.37A16.12,16.12,0,0,1,94.26,128c0,.88-.27,2.08.19,2.59,4.18,4.69,8.58,9.18,12.7,13.92,1.3,1.48,1.93,3.54,2.87,5.34l-1.26.92c-2.3-2.21-4.64-4.38-6.86-6.66-1.53-1.57-2.79-3.41-4.38-4.9-.77-.71-2.47-1.54-3-1.2a5.35,5.35,0,0,0-2.2,3.37c-.2,2,.49,4.1.52,6.15,0,2.67-1.3,3.26-3.49,1.8-3.41-2.26-5.77-5.1-5.78-9.53,0-3.89-.53-7.78-.54-11.66,0-2.75.46-5.5.7-8.12-6.6,1.81-9-4.9-14.35-8,1.12,2.63,1.57,4.82,2.82,6.41A20.08,20.08,0,0,1,76.49,131c0,5.89,2.8,10.32,6,14.85,5,7.08,9.76,14.4,14.61,21.62ZM66.92,110.52l1.32,0L67.1,89.62l-.18,0Z"/><path class="cls-2" d="M137.86,140.51c1.58-2.56,3.07-5.18,4.78-7.65a50.43,50.43,0,0,1,4.25-4.58c.45,3.19.73,5.24,1,7.41,2.21-3.15,1.58-8.77-1.4-11.49-2.66-2.42-5.53-4.6-8.31-6.88l.11.11c-2.45-5.28-3.14-6.5-7.77-6.46l-.41-1,4.44-1.81c-.53-.47-1.25-1.65-2-1.65-4,0-3.71-2.58-3.62-5.23a37.19,37.19,0,0,1,.43-6.25l1,2.73c4-2,6.55.63,9.15,3,3.89,3.56,6.07,3.81,10.74,1.43,4.42-2.25,8.74-4.55,9.87-9.92.33-1.55-.08-3.25-.19-5.73l2-1.66c.89,6.18,2.09,12,2.5,17.95s-2.94,10.33-6.36,14.74a12.09,12.09,0,0,0-2.17,5.54c-1,7.08-1.77,14.2-2.6,21.31a5.38,5.38,0,0,0,.19,1.3l1.13.15q2-12.63,4-25.26l1.05.16c1.77,11.92-2,27.71-9.55,40-1.27,2.07-3,3.92-3.91,6.13-3.12,7.49-9.63,7.11-16,7.19-.52,0-1.05-.47-.86-.38.28-1.79.49-3.11.7-4.42a16.07,16.07,0,0,0-4.26.39,11.33,11.33,0,0,0-3.16,2.44c-3.14,2.82-6,2.84-9,0s-2.9-4.65-.19-8.27c2.54-3.41,5.74-5.15,10-4.61,1.69.21,3.39.36,5.08.58,3.55.46,6-.26,7-4.38.65-2.63,2.54-5,3.78-7.45a4.8,4.8,0,0,0,.36-3.63l-4,5.05-1.16-.4a41.4,41.4,0,0,1,1.12-4.14c.59-1.54,1.42-3,2.15-4.48Z"/><path class="cls-2" d="M73.83,68C73.75,60.05,79.76,54.5,87,55.55,97,57,104.53,62.79,110.4,70.82c.62.85.86,3.1.41,3.4-1.25.83-3.14,1.63-4.44,1.25-2-.59-3.78-2.1-5.58-3.32C96.12,69,92,69.09,87.3,72.08,84.72,73.74,82,75.34,78.55,74,75.31,72.67,73.44,70.76,73.83,68Z"/><path class="cls-2" d="M137.94,140.44c-6,6.78-14.2,4.07-21.53,4.56-2.58.17-5.44-1.55-7.91-2.9-1.15-.63-1.94-2.32-2.41-3.7-.82-2.38-.3-4.09,2.83-3.85.91.08,1.85-.49,2.78-.54,2.77-.13,5.75-.82,8.27,0,3,.91,5.48,1.52,8.36,0a12.06,12.06,0,0,1,4.21-1c2.93-.32,4.4,1.22,4.49,4.23a14.48,14.48,0,0,0,.82,3.25Z"/><path class="cls-2" d="M211.25,179.09c.6-.31,1.2-.65,1.81-.92.78-.34,1.59-.62,2.38-.94,11.57-4.84,23.09-9.77,34.72-14.43a43.4,43.4,0,0,1,9.57-2.14c.7-.1,1.59,1.13,2.4,1.75-.63.82-1.2,2.28-1.9,2.35-12.45,1.17-23.66,6.5-35.32,10.29-4.49,1.46-8.94,3.08-13.4,4.63Z"/><path class="cls-2" d="M64.3,137.86c3.77,8,7.31,15.22,6.13,23.68-.25-1.2-.51-2.41-.9-4.27l-1.14,2.44C60.2,154.06,62.81,146.3,64.3,137.86Z"/><path class="cls-2" d="M50.21,154.62c-5.85-2.81-12-5.66-18-8.68-5.11-2.57-10.31-2.35-15.62-.94-1.13.3-2.27.52-3.92.89C20.59,136.63,42.93,143.75,50.21,154.62Z"/><path class="cls-2" d="M138.21,117.32c1.32,1.66,2.57,3.39,4,4.94,1.2,1.31,2.63,2.41,3.92,3.57-2.87,3.64-6.29,5.58-10.61,5.59a12.19,12.19,0,0,1-3.13-.86,14.18,14.18,0,0,1,1.25-3.6c1-1.48,2.87-2.52,3.48-4.09s.13-3.57.13-5.5l1.07.06Z"/><path class="cls-2" d="M211.88,163c10.78-5.29,21.42-.23,32.14,0l0,1.3H211.84Z"/><path class="cls-2" d="M20.72,161.12h-17c-2.42,0-4.06-.77-3.66-3.6s2.72-2.18,4.24-1.79c5.65,1.47,11.22,3.24,16.82,4.89Z"/><path class="cls-2" d="M24.44,185.89,44,194l-.5,1.51c-3.67-1.12-7.41-2.08-11-3.43a40.34,40.34,0,0,1-7-3.75c-.6-.38-.66-1.62-1-2.46Z"/><path class="cls-2" d="M183.37,163.94c8.57-12.52,11.75-13.95,20.9-10.08-3.31.58-7.44.55-10.83,2.12S187.25,160.77,183.37,163.94Z"/><path class="cls-2" d="M131.72,119.68l.95-2.22-.44-.36-2.79,3.42c-1.15-6.51-2.2-12.48-3.26-18.44l1.47-.27,1.28,11.34,6,1.88-2.26,5.21Z"/><path class="cls-2" d="M111.52,118.83c1.72-1.94,2.86-4.23,4.59-4.86,1.31-.48,3.39,1.14,5.17,1.84C120.41,121.41,119.44,121.79,111.52,118.83Z"/><path class="cls-2" d="M136.57,92.42c4.35-5.29,10.08-4.22,15.91-3.67l-3.36,2.85c-5.36-3.6-6.44-3.53-6.82.33a24.17,24.17,0,0,0-2.94-.12A21.08,21.08,0,0,0,136.57,92.42Z"/><path class="cls-2" d="M52.57,153.33c2.6-5.33,1.73-13,9.82-14.83C56.12,141.58,55.69,148.26,52.57,153.33Z"/><path class="cls-2" d="M87.22,87.49h9C92.08,92.47,91,92.45,87.22,87.49Z"/><path class="cls-2" d="M166.76,75.79c3.72,5.16-.72,7.71-2.84,10.88Z"/><path class="cls-2" d="M101.24,87.68l7.75,4c-3.58.89-3.58.89-8.27-3.13Z"/><path class="cls-2" d="M123.45,94.38c-.26,5-.52,10-.82,15.91V94.35Z"/><path class="cls-2" d="M157.56,151.37l9.44,2.45-.26,1-9.35-2.24Z"/><path class="cls-2" d="M24.51,185.82l-10.63-3.06.47-1.45q5,2.31,10.08,4.59Z"/><path class="cls-1" d="M66.92,110.52V89.65l.18,0,1.14,20.88Z"/></g></g></svg>