<svg xmlns="http://www.w3.org/2000/svg" viewBox="0 0 26 26"><defs><style>.cls-1{fill:#fdfffc;}</style></defs><g id="Layer_2" data-name="Layer 2"><g id="moon-bup"><path class="cls-1" d="M13,0A13,13,0,1,0,26,13,13,13,0,0,0,13,0ZM4.5,11.5a1,1,0,1,1,1,1A1,1,0,0,1,4.5,11.5Zm1,6.5a.5.5,0,1,1,.5-.5A.5.5,0,0,1,5.5,18ZM7,22a1,1,0,1,1,1-1A1,1,0,0,1,7,22ZM9,9a3,3,0,1,1,3-3A3,3,0,0,1,9,9ZM20,5a2,2,0,1,1-2,2A2,2,0,0,1,20,5ZM17.5,4a.5.5,0,1,1-.5.5A.5.5,0,0,1,17.5,4ZM18,22a5,5,0,1,1,2-9.57A.5.5,0,0,1,20.5,12a.5.5,0,0,1,.5.5.51.51,0,0,1-.18.38A5,5,0,0,1,18,22Z"/></g></g></svg>