<svg xmlns="http://www.w3.org/2000/svg" viewBox="0 0 25 25"><defs><style>.cls-1,.cls-2{fill:#fdfffc;}.cls-2{font-size:8px;font-family:KaiTi;letter-spacing:0.08em;}.cls-3{fill:none;stroke:#fdfffc;stroke-linecap:round;stroke-miterlimit:10;stroke-width:2px;}</style></defs><g id="Layer_2" data-name="Layer 2"><g id="language-dark"><path class="cls-1" d="M15.94,21c-.2.25,2.45-6,2.46-5.79,0-.25,0-.25,0,0,0-.25,2.66,6,2.45,5.79.21.25-.8.25-.93,0a12,12,0,0,0-.55-1.39,6.11,6.11,0,0,1-2.09,0A10.35,10.35,0,0,0,16.74,21C16.6,21.21,15.74,21.21,15.94,21Zm1.65-2.09a5,5,0,0,0,1.55,0c.06.08-.75-2-.76-1.92C18.39,16.87,17.53,19,17.59,18.87Z"/><text class="cls-2" transform="translate(2.42 9.08)">文</text><path class="cls-3" d="M5.08,15.87s-1,5,4,4"/><rect class="cls-3" x="1" y="1" width="11" height="11" rx="4.34"/><rect class="cls-3" x="13" y="13" width="11" height="11" rx="4.34"/><path class="cls-3" d="M19,9s1-5-4-4"/></g></g></svg>