<svg xmlns="http://www.w3.org/2000/svg" viewBox="0 0 336.91 242.29"><defs><style>.cls-1{fill:#212121;}</style></defs><g id="Layer_2" data-name="Layer 2"><g id="Section4"><path class="cls-1" d="M37.5,33.84H374.41V276.12H37.5ZM58.59,54.93V223.39H174.32V212.84H69.14V65.48H174.32V54.93Zm0,179v10.54H174.32V233.94ZM174.32,107.67V76H100.63A20.08,20.08,0,0,1,99,84.23a21.64,21.64,0,0,1-11.21,11.2,19.93,19.93,0,0,1-8.2,1.69v84.23a20.8,20.8,0,0,1,14.87,6.08A21.74,21.74,0,0,1,99,194.09a20.12,20.12,0,0,1,1.68,8.2h42.19v-10.4h31.5a51.25,51.25,0,0,1-15.46-18.6,53.54,53.54,0,0,1-.07-47.09A50.18,50.18,0,0,1,174.32,107.67ZM121.73,155a5.26,5.26,0,0,0-5.27-5.27,15,15,0,0,1-6.08-1.25,16.37,16.37,0,0,1-8.5-8.49,15.07,15.07,0,0,1-1.25-6.08,15.73,15.73,0,0,1,10.55-14.8V107.67h10.55v11.42a15.23,15.23,0,0,1,5.93,3.81,16.25,16.25,0,0,1,3.74,6L121,131.4a4.81,4.81,0,0,0-4.54-2.79,5.26,5.26,0,0,0-5.28,5.28,5.26,5.26,0,0,0,5.28,5.27,15,15,0,0,1,6.07,1.25,16.37,16.37,0,0,1,8.5,8.49,15.07,15.07,0,0,1,1.25,6.08,15.51,15.51,0,0,1-2.93,9.23,15.31,15.31,0,0,1-7.62,5.71v11.43H111.18V169.92a14.68,14.68,0,0,1-5.93-3.88,16.8,16.8,0,0,1-3.74-6.08l10.4-2.49a4.63,4.63,0,0,0,4.55,2.78,5.24,5.24,0,0,0,5.27-5.27Zm105.32,66.65V54.93H184.86v166.7Zm0,33.4V232.18H184.86V255Zm126.27-31.64V54.93H237.6V65.48H342.77V212.84H237.6v10.55ZM237.6,191.89h31.49v10.4h42.19a20.75,20.75,0,0,1,1.61-8.2A20.77,20.77,0,0,1,324,183a20.94,20.94,0,0,1,8.21-1.61V97.12A20,20,0,0,1,324,95.43a21.56,21.56,0,0,1-6.66-4.54A20.75,20.75,0,0,1,311.28,76H237.6v31.64a50.16,50.16,0,0,1,15.52,18.53,53.54,53.54,0,0,1-.07,47.09A51.32,51.32,0,0,1,237.6,191.89Zm115.72,52.59V233.94H237.6v10.54Zm-57.86-84.23a15.44,15.44,0,0,1-6.23-1.24,15.88,15.88,0,0,1-8.35-8.35,15.44,15.44,0,0,1-1.24-6.23,15.1,15.1,0,0,1,1.24-6.08,16.46,16.46,0,0,1,8.5-8.49,15.41,15.41,0,0,1,12.16,0,16.4,16.4,0,0,1,8.49,8.49,15.41,15.41,0,0,1,0,12.16,16.37,16.37,0,0,1-8.49,8.5A15.06,15.06,0,0,1,295.46,160.25Z" transform="translate(-37.5 -33.84)"/></g></g></svg>