<svg xmlns="http://www.w3.org/2000/svg" viewBox="0 0 315.82 336.91"><defs><style>.cls-1{fill:#212121;}</style></defs><g id="Layer_2" data-name="Layer 2"><g id="Section4"><path class="cls-1" d="M279.93,147.36a73.46,73.46,0,0,1-20.36-2.78l-13.33,13.33,81.15,81.15a52.1,52.1,0,0,1,15.38,37.2v47.17a13.83,13.83,0,0,1-1,5.28,13.3,13.3,0,0,1-2.86,4.32,13,13,0,0,1-4.32,2.85,13.82,13.82,0,0,1-10.47,0,13.1,13.1,0,0,1-4.47-2.93L195.41,208.74,71.19,333a13.1,13.1,0,0,1-4.47,2.93,13.77,13.77,0,0,1-5.2,1,13.6,13.6,0,0,1-5.27-1,12.94,12.94,0,0,1-7.18-7.17,13.83,13.83,0,0,1-1-5.28V276.26a52.1,52.1,0,0,1,15.38-37.2l81.15-81.15-13.33-13.33a73.46,73.46,0,0,1-20.36,2.78,63.52,63.52,0,0,1-23.66-4.69,83.05,83.05,0,0,1-21.61-12.6,84,84,0,0,1-16.91-18.38,62.31,62.31,0,0,1-9.6-22.19,58.52,58.52,0,0,1-1.24-7.84c-.25-2.68-.37-5.35-.37-8A71.41,71.41,0,0,1,43.29,45,74.24,74.24,0,0,1,82.54,5.78a73.85,73.85,0,0,1,57.28,0,74,74,0,0,1,39.26,39.33,72.16,72.16,0,0,1,5.78,28.71,75.76,75.76,0,0,1-2.63,19.93l13.18,13.33,13.33-13.33A72.61,72.61,0,0,1,206,73.53a71.48,71.48,0,0,1,5.78-28.64,73.82,73.82,0,0,1,15.82-23.36A75.4,75.4,0,0,1,251,5.78a73.85,73.85,0,0,1,57.28,0A74.24,74.24,0,0,1,347.53,45a71.41,71.41,0,0,1,5.79,28.64c0,2.63-.12,5.3-.37,8a58.52,58.52,0,0,1-1.24,7.84,63,63,0,0,1-9.6,22.26,83.26,83.26,0,0,1-16.91,18.46,81.69,81.69,0,0,1-21.61,12.52A64.43,64.43,0,0,1,279.93,147.36ZM153.37,136.81l20.95-21q-4.11-4.39-8.35-8.57t-8.5-8.42a46.41,46.41,0,0,0,4.76-12.16,55.66,55.66,0,0,0,1.54-13,50.57,50.57,0,0,0-4.18-20.44,52.92,52.92,0,0,0-28-28,52.16,52.16,0,0,0-40.87,0A54.79,54.79,0,0,0,74,36.54,52.09,52.09,0,0,0,62.7,53.24a52.86,52.86,0,0,0,0,40.87,52.52,52.52,0,0,0,28.05,28.05,51.28,51.28,0,0,0,20.43,4.1,56.27,56.27,0,0,0,13-1.53A46.9,46.9,0,0,0,136.38,120q4.25,4.25,8.49,8.42T153.37,136.81Zm63.13,21.1,10.55-10.55L206,126.26l-10.55,10.55-10.55-10.55-20.94,21.1,10.4,10.55L78.37,254a30.34,30.34,0,0,0-9.23,22.26v29L195.41,179,321.83,305.27v-29a30.38,30.38,0,0,0-2.42-12.08,32.29,32.29,0,0,0-7-10.18ZM111.18,42.18a30.47,30.47,0,0,1,12.31,2.49,33.07,33.07,0,0,1,10,6.74,31.5,31.5,0,0,1,6.81,10,31.65,31.65,0,0,1,0,24.61,32.25,32.25,0,0,1-16.84,16.85,31.65,31.65,0,0,1-24.61,0A32.22,32.22,0,0,1,82,86a31.65,31.65,0,0,1,0-24.61,31.5,31.5,0,0,1,6.81-10,33,33,0,0,1,10-6.74A30.46,30.46,0,0,1,111.18,42.18Zm84.23,105.18a10.5,10.5,0,1,1-7.47,3.07A10.17,10.17,0,0,1,195.41,147.36Zm59-27.39a46.76,46.76,0,0,0,12.16,4.76,56.27,56.27,0,0,0,13,1.53,51.21,51.21,0,0,0,20.51-4.1,52.92,52.92,0,0,0,28-28,52.62,52.62,0,0,0-.07-40.94,53,53,0,0,0-28-28,52.16,52.16,0,0,0-40.87,0,54.75,54.75,0,0,0-16.77,11.28,52.11,52.11,0,0,0-11.28,16.7,51.54,51.54,0,0,0-4.1,20.44,53,53,0,0,0,6.3,25.19,78.45,78.45,0,0,1-8.13,8.64q-4.47,4.11-8.72,8.35l21.1,21Zm56.84-46.29A30.46,30.46,0,0,1,308.79,86a32.22,32.22,0,0,1-16.85,16.85,31.65,31.65,0,0,1-24.61,0A32.25,32.25,0,0,1,250.49,86a31.65,31.65,0,0,1,0-24.61,31.5,31.5,0,0,1,6.81-10,33.07,33.07,0,0,1,10-6.74,31.65,31.65,0,0,1,24.61,0,33,33,0,0,1,10,6.74,31.5,31.5,0,0,1,6.81,10A30.47,30.47,0,0,1,311.28,73.68Z" transform="translate(-37.5 0)"/></g></g></svg>